<svg xmlns="http://www.w3.org/2000/svg" viewBox="0 0 2492 1696" version="1.1" width="2492"
	height="1696">

	<defs>
		<linearGradient id="gradient" x1="0%" y1="0%" x2="100%" y2="0%">
			<stop offset="0%" stop-color="rgb(165 200 255)" />
			<stop offset="100%" stop-color="rgb(25 118 210)" />
		</linearGradient>
	</defs>

	<style>
		path {
			fill: url(#gradient);
		}
	</style>

	<path
		d="M 1388 1.0309892452943388 C 1383.875 1.42017128931801, 1311.65 1.8002602261323077, 1227.5 1.8756313271038891 C 1105.818562835732 1.9846184202337191, 1069.1778912828167 2.316866157368058, 1048.5 3.4987550971242776 C 1009.05864066653 5.753110037268299, 971.0209291681718 9.279150638080619, 952 12.44416491740423 C 947.325 13.222068122080326, 941.025 14.157363013522971, 938 14.522598009498996 C 924.0529209070806 16.206552183508823, 886.4222523951678 24.2275201655901, 875.5 27.84445804292836 C 863.01146987035 31.980073667247325, 818.0181885160117 45.573059356305876, 795.5 52.01337443203795 C 788.35 54.05831036277418, 777.775 57.181830762622056, 772 58.95453087614433 C 753.3467241000677 64.68036019309191, 746.6265684675844 66.68803436150921, 740 68.51466265029686 C 736.425 69.50011932585373, 728.325 71.84189041642489, 722 73.71859840712163 C 715.675 75.59530639781838, 707.575 77.80671418155028, 704 78.63283792652584 C 700.425 79.45896167150141, 688.275 82.77656859165886, 677 86.00529774909795 C 665.725 89.23402690653704, 649.75 93.63909500051174, 641.5 95.79433795793065 C 628.1849121807077 99.2727924124693, 608.7853639287378 104.49341378807972, 579 112.61374177794067 C 573.775 114.03822374326215, 565.9 116.27113906522152, 561.5 117.57577582673927 C 557.1 118.88041258825703, 547.65 121.48278977540107, 540.5 123.35883624261493 C 533.35 125.23488270982878, 521.65 128.438507590834, 514.5 130.47800264484874 C 507.35 132.51749769886348, 499.925 134.53905294931715, 498 134.97034764585692 C 494.45632614712065 135.7643049128769, 464.7707139915523 143.46671828978847, 451 147.16525967319535 C 446.875 148.27315307769945, 441.25 149.77239794049487, 438.5 150.49691492385182 C 435.75 151.2214319072088, 429.225 153.03276565053318, 424 154.52210102012822 C 418.775 156.01143638972326, 412.925 157.60895667969655, 411 158.07214610895772 C 409.075 158.53533553821893, 403.45 160.05974877562792, 398.5 161.45973108097775 C 386.2305684722983 164.92982947198448, 370.93372310210736 168.76924297301716, 362.5 170.4955082423606 C 358.65 171.28354944391626, 348.75 173.339202861661, 340.5 175.06362694846 C 332.25 176.78805103525903, 323.475 178.58228859727464, 321 179.05082153071692 C 304.75187920727865 182.1266921157423, 298.71983364119126 183.33018317615972, 284 186.4329224693754 C 274.925 188.3458081562855, 251.3 193.5576726953937, 231.5 198.01484366739362 C 211.7 202.47201463939356, 192.35 206.78599798513312, 188.5 207.60147332459266 C 184.65 208.4169486640522, 178.35 209.9313116707975, 174.5 210.96672445069333 C 170.65 212.0021372305892, 165.475 213.15865116329928, 163 213.5367554122713 C 160.525 213.91485966124336, 154.225 215.3465667710623, 149 216.7183267674245 C 143.775 218.09008676378667, 133.93666237752595 220.51949951620995, 127.13702750561322 222.1170217728095 C 120.33739263370049 223.71454402940907, 114.46606778305755 225.21195426900897, 114.08963894862893 225.44460008303147 C 113.71321011420031 225.67724589705398, 107.61887490489968 227.03919571358134, 100.54667181684977 228.47115523087004 C 93.47446872879985 229.90311474815874, 87.33836220375416 231.29088065757136, 86.91087953897045 231.55507947400923 C 86.1986300332882 231.99527387699143, 81.09414297298892 233.16250136969396, 73.5 234.62170440895235 C 71.85 234.93874940314592, 69.825 235.55130791412705, 69 235.98294554446602 C 68.175 236.414583174805, 65.49230477585836 237.10063661169445, 63.03845505746301 237.5075087375538 C 60.584605339067664 237.9143808634131, 57.77210533906772 238.7498851402772, 56.788455057463125 239.36418490836292 C 54.43242897159235 240.83554755138817, 54.42494121267027 243.31729191005806, 56.77878203986336 242.57021185305317 C 57.75711216178808 242.25970193461967, 64.16961216178802 241.9566643528961, 71.02878203986324 241.89679500477854 C 90.23492959632091 241.729156711152, 103.30923525113553 245.2510300217363, 105.38423067185352 251.1512472720467 C 108.23017971346927 259.2436591690499, 102.04312933821365 268.0802735857498, 73.98289535152628 296 C 49.04265957327357 320.81535114661085, 41.84047634788084 329.0000260085642, 38.35172476105299 336.4918254794771 C 34.181466552333156 345.4471028800285, 35.91450927484811 347.59670687132683, 46.39939800651439 346.47387052912484 C 51.4841539320835 345.929339357591, 52.96769572591911 346.1105528688034, 54.295518556043135 347.4383756989027 C 55.80886911999248 348.9517262628239, 55.73795863152421 349.60724543652503, 53.34255688441965 356.24785735733224 C 50.322286107227676 364.6207518629533, 42.40987295498153 378.1693390491515, 33.92321174013546 389.5 C 21.89427141807505 405.56000769169725, 8.767025871253317 430.19598895806297, 10.631192422500817 433.2122737986724 C 11.06122894972225 433.90808751612076, 14.359229262658193 434.07840694054715, 20.144704880309177 433.7035824136934 C 28.536589796987673 433.1598960340104, 29.00000000000022 433.2349935713229, 29.000000000000114 435.1386195607855 C 28.99999999999989 439.07941827605873, 19.863861067418252 463.13920052694453, 13.67371086910532 475.5 C 9.264080772639192 484.3053684687043, 2.630588849962794 503.1270245267795, 0.545345683955702 512.75 C -0.34530082013071195 516.8601534841832, 1.6681946169133184 517.1176000468836, 6.411112785073328 513.5 C 10.732424755876693 510.2039746767883, 15.360730972030144 510.207173473165, 18.420111663901366 513.5082998704727 C 23.87099150647032 519.3898965559284, 24.15773209414434 530.5359570287442, 19.64187051206045 561 C 16.275857150372975 583.7071565034438, 16.34468141821588 596.7446814187645, 19.849063832829415 600.249063832822 C 21.02046743213025 601.420467431937, 25.64955849994439 598.8356966341579, 34.06223500537976 592.3127780150555 C 40.20969138562461 587.5462381799731, 43.699684170766574 586.905685838711, 46.523246661953976 590.0256872723196 C 48.192359999702866 591.8700367502878, 48.33425662471911 593.8618377451679, 48.10834472884255 612.2756872723196 C 47.797349576135815 637.6245867775707, 50.74089050895087 671.0742238431915, 53.527815388153385 673.8611487214191 C 54.274331995716494 674.6076653287209, 53.9733375933604 674.8408835220654, 74.63177736053046 657.509256974994 C 84.45929981223871 649.2643483112406, 95.65 639.9802627214893, 99.5 636.8779556644356 C 103.35 633.7756486073819, 117.30047604312719 621.8464829686345, 130.501057873616 610.3686986894417 C 143.7016397041048 598.8909144102488, 158.15684097095843 586.35, 162.62372735551298 582.5 C 171.04227783816296 575.2440690073798, 191.319405511814 557.3975516954823, 203.5 546.5235481505784 C 207.35 543.0865308778596, 213.425 537.7856332475536, 217 534.7437756387874 C 220.575 531.7019180300213, 227.775 525.5277625567928, 233 521.023430142724 C 293.11133598818964 469.2030590145756, 316.4749966578465 450.1368117690498, 361.5 416.15917938633527 C 392.67382846250615 392.6341864971249, 400.5009862942689 386.92244178631375, 405.5356672215595 384.02484726400235 L 409.52263808800785 381.73023811000127 415.5113190440039 384.7706276509698 C 424.55106872197877 389.360012287727, 427.4927231514363 392.924209130527, 427.32184365677574 399.0806139345782 C 427.1400831895789 405.6290357663515, 426.26426365092004 406.82840525678137, 409.5084914066257 423.474670321841 C 397.3035630974085 435.5998334461167, 395.0511578605558 438.3299009511903, 393.5678037472848 442.7958620307112 C 392.5170912465345 445.9592611760235, 392.09502904100174 449.1561793010424, 392.4904317889612 450.95643622049016 C 393.09836177668546 453.72432332443253, 397.5806022137958 458.5466566988201, 401.67520789215473 460.8381132434349 C 403.2389387905618 461.71322105176665, 401.5333805466029 463.82103957002795, 388.4589627238615 477.1714436390878 C 364.31503729896957 501.8250201581812, 345.568110545546 525.1261319667176, 338.14339062854674 539.7101619327035 C 335.1044157930014 545.6794780231322, 335.3036219169455 546.3669717902611, 339.8610823843535 545.6382044676681 C 342.9594184658012 545.1427605451771, 344.9348912140563 545.626799048356, 349.8610823843536 548.088445826889 C 353.23748707295925 549.7756551611197, 356.00000000000017 551.5407272204179, 356.0000000000001 552.0108281808853 C 356.00000000000006 552.4809291413526, 353.54070688016884 555.4833068299354, 350.53490417815294 558.6827785999583 C 342.5036095064742 567.2315434811458, 328.79594572524866 582.0647390816802, 317.992753244317 593.8969549736763 C 312.77173895994264 599.6152802091983, 308.04322616741024 604.7902802091983, 307.48494703868937 605.3969549736763 C 306.43561966627584 606.5372455626832, 277.3868676635402 637.4050945434562, 270.75 644.4323254914932 C 264.45725175766694 651.095196809488, 265.8921202145016 654.2535302307144, 275.80958192360356 655.5691280399318 C 283.9814330815243 656.6531624225141, 284.0414048500182 657.8650953155146, 276.2797544483826 665.0705578372299 C 239.99786501371156 698.7525431123521, 205.46880502288244 737.5746821146469, 198.75969514619203 752.2288679243013 C 196.74179659927722 756.6364064495324, 197.37646436448057 757.2632445639383, 205 758.3921885502134 C 211.20737605720632 759.3114181839913, 216.00000000000003 760.9575892543227, 215.9999999999999 762.170469923796 C 215.99999999999983 762.7289210907246, 212.81814915646478 767.0815226534321, 208.9292203476998 771.842917840924 C 191.95861382543325 792.6208153539408, 165.59263906733307 828.4983418644268, 158.1064892428359 841 C 152.18441977875278 850.88968824172, 141.99999999999974 871.1752623840621, 141.9999999999999 873.0812956266802 C 141.99999999999994 874.048964479799, 143.58722331982702 875.5253038950639, 145.71112703864833 876.5331622000676 C 149.25630189446954 878.2154578189637, 149.5581447638775 878.2150879919741, 152.46112703864833 876.5248918964345 C 161.2540573390158 871.4054061209982, 162.9217077024949 870.8069631686659, 165.72936515696824 871.7635319821118 C 170.4129309806691 873.359222722638, 169.2913893641316 875.5614320730069, 155.82494395614106 891.2114139481787 C 145.90571795699455 902.7390073404384, 137.79040065127575 911.9020811459662, 128.90611616650472 921.6056913994021 C 116.55967928729174 935.0907403867338, 108.93857667102156 945.6195153891331, 100.48677470704308 960.8678384940001 C 95.5682865970623 969.7415314896566, 89.72816323880714 989.0614965732627, 91.4452302084992 990.7785635417546 C 91.76576193695203 991.0990952699834, 94.95012337130593 990.7805259951676, 98.52158895150785 990.0706318199418 C 106.02700846039798 988.5787922733077, 109.42971604249371 989.8796263830747, 110.6404563592489 994.7036000416846 C 112.14106721577221 1000.6825099231139, 109.3403243555476 1006.7728733538305, 96.70821293255779 1025 C 64.41425246608652 1071.5976025399436, 57.62921994324607 1083.1765280047894, 53.84203088553784 1098.1528294395216 C 51.49170044579546 1107.4471257105688, 52.25603680953163 1111.354764438534, 57.24554527421992 1115.553159016136 C 60.262641459477166 1118.091878081137, 60.66485205087017 1118.1558431440435, 70.4287937149245 1117.6497405927164 C 75.96795717171602 1117.3626245022936, 82.20987674234333 1116.8221312180813, 84.29972609409629 1116.4486444055779 L 88.09945218819257 1115.7695774737535 87.49794536690251 1121.1347887368768 C 86.48309381263827 1130.1868772529454, 83.9229905166151 1146.0364854958732, 81.94711475488975 1155.5 C 80.91361023431492 1160.45, 79.78217596825448 1166.3, 79.43281638586654 1168.5 C 79.08345680347861 1170.7, 77.96607090385412 1175.875, 76.94973660892322 1180 C 73.2336681470733 1195.0824216811193, 67.90730720747962 1223.8314500631484, 66.48192569413209 1236.5 C 63.8271713663857 1260.0950076917604, 65.25813200532973 1304.394352126393, 68.71793992329015 1305.7220049961038 C 69.44787029303009 1306.0021055603702, 74.87244168881979 1302.6018508118793, 80.77254302504502 1298.1658833327906 C 86.67264436127026 1293.729915853702, 92.625 1289.255127140481, 94 1288.2219084145217 C 98.43917962438354 1284.886167675751, 102.92077648333847 1282.5874431500054, 103.62059495375911 1283.2872616204263 C 104.95152896422708 1284.6181956308942, 107.30985243544454 1299.1794823223374, 112.96766079985377 1341 C 114.1209898111862 1349.525, 115.30468132255928 1358.525, 115.59808638068284 1361 C 117.67779293645683 1378.5432344570315, 126.36146185134554 1431.7600616674072, 129.14163186652195 1444 C 130.20350770835853 1448.675, 132.19625293383777 1457.6359615028405, 133.56995458980919 1463.91324778409 C 136.55085346333092 1477.5348049273098, 143.5573046162894 1503.3042990172562, 145.02621002131048 1506.0489738728006 C 145.60049664392648 1507.1220382427603, 146.4060037481094 1508.0000000000002, 146.8162258083837 1508 C 147.226447868658 1508, 149.9808875511522 1503.8375, 152.93720288059308 1498.75 C 155.89351821003396 1493.6625, 160.37954928758086 1486.1980128530654, 162.90616083069733 1482.16225078459 C 165.4327723738138 1478.1264887161144, 168.86823202545398 1472.5920831598542, 170.54051561211998 1469.8635717706782 C 174.7437513677761 1463.0055384071122, 182.08014658970993 1454.6721197983115, 183.03386915473516 1455.672359090766 C 183.4679021898858 1456.1275615908446, 184.74090191159712 1460.775, 185.8627574252048 1466 C 186.98461293881246 1471.225, 189.53095625580787 1481.575, 191.52129812963904 1489 C 198.0166515379197 1513.2310126167677, 201.14613927049786 1525.363481547285, 202.99977006286906 1533.5 C 204.00216138464032 1537.9, 205.73245395287904 1544.875, 206.8448646589551 1549 C 207.95727536503114 1553.125, 210.72760905906202 1563.7, 213.00116175680148 1572.5 C 225.2100176667091 1619.7555274896465, 247.35685232753386 1693.0000000000002, 249.4365880103271 1692.9999999999998 C 250.0302029759578 1692.9999999999995, 252.39370144917567 1690.1874999999995, 254.6888068397002 1686.7499999999998 C 259.13224466257174 1680.0948295755036, 261.51869218044385 1675.6774978620367, 277.2440936811679 1645 C 282.74176926911 1634.275, 287.5864655349064 1625.05, 288.01008538293763 1624.5 C 289.2329655808753 1622.9122932105483, 323.8753564946797 1554.2183851112522, 390.38314218059526 1421.5 C 448.713018570161 1305.100890958522, 476.9540150147767 1249.242218908195, 487.20160600428443 1230 C 504.0233760570354 1198.4132415013667, 524.8618709674568 1156.982362752349, 529.7025828867108 1145.5 C 531.0937904001881 1142.2, 537.980033714866 1128.025, 545.0053458082173 1114 C 591.4224641568667 1021.3350655188808, 771.625424817191 659.6727590329441, 773.2098186059316 656 C 775.0816091201435 651.6610310090172, 775.2060556189826 651.571569337341, 776.6874670923573 653.5 C 782.1658768711688 660.631532048962, 785.2763654533 673.221202792895, 787.4348691551086 697 C 789.1330955613879 715.7082288961719, 790.6270779094608 721.7341304118975, 795.2819863238057 728.6509464130695 C 799.0021893226162 734.1788660495729, 798.319875080718 734.0863851899499, 812.5 730.9846756656589 C 832.6899031232749 726.5684088719282, 854.6819129156411 730.8930542083064, 886 745.438171968399 C 892.325 748.3757035483061, 900.6384079132249 752.2024101523482, 904.4742398071664 753.941964421826 C 912.5488465958766 757.603808084954, 912.3070988105926 758.1017854520851, 901.2533250144047 760.5767415155183 C 895.4153454627785 761.8838736457668, 891.963256216034 763.548836407221, 883.4949308369332 769.1417185179515 C 865.5354298279922 781.0030213628382, 856.709382499271 790.5407462857924, 850.140104461856 805.1860707596559 C 847.5573286667842 810.9440230561846, 847.3426363949939 812.039473520292, 848.5934832300089 813.0775841900021 C 849.7376435544071 814.0271529200556, 850.8370714733535 813.948684815176, 853.7729763958522 812.7079146500923 C 867.5436219238809 806.8881736924809, 904.5254921427572 796.8842531054115, 921 794.5224145263678 C 942.7883684696191 791.3987637519782, 947.2018503048664 791.1441233359044, 974.5 791.4356764885795 C 1003.0758376681326 791.7408757660221, 1013.6759641919564 792.8185394464601, 1033.365594927124 797.4202572893619 C 1041.3181511734713 799.2788711185248, 1069.3059941233794 809.6031254330961, 1077.1487708171803 813.5711497821337 C 1082.6266395262917 816.3426575359839, 1093.9728959355957 824.5656716632277, 1094.0340042273342 825.8084470777992 C 1094.052706552368 826.1888011850097, 1096.3019084148875 828.975, 1099.0322305884886 832 C 1101.7625527620896 835.025, 1103.9972508597893 837.8375, 1103.9982263611544 838.25 C 1103.9992018625194 838.6625, 1104.6546091236003 839, 1105.454686941334 839 C 1108.6325807330315 839, 1108.4430178523874 832.2655616031295, 1105.008346390347 823.1432408368478 C 1093.9738865938227 793.8362509663409, 1068.4921973760845 767.6358493867791, 1031.313289500698 747.3696110574936 C 1010.2231456582341 735.873364773367, 970.5960437467627 722.6810435555942, 944.5 718.4684614447037 C 940.1819528309074 717.77141600613, 926.5757298217017 710.0661819528273, 918.5 703.7446041883345 C 908.6435001720104 696.0290624943931, 898.0479312622551 682.0682528578689, 890.2063038427325 666.4645950326588 C 884.8929141173186 655.8917495336575, 877.8116473996798 631.7323951501437, 874.5354770744827 613 C 873.6216596041619 607.775, 872.4514818164234 601.25, 871.9350819906197 598.5 C 871.4186821648158 595.75, 869.8628492221637 585.85, 868.4776754513929 576.5 C 865.3857757615921 555.6295051136076, 862.7766376043452 542.1577491827646, 858.7939409380863 526.5 C 857.1151684855142 519.9, 855.5182258224767 513.15, 855.2451794646695 511.5 C 854.9721331068623 509.85, 854.3435279931687 507.9897470142362, 853.8482792120169 507.36610447608035 C 852.5611073959681 505.7452320399355, 852.5042763979944 499.79478511498786, 853.7536714428539 497.46026911923104 C 855.6263361878072 493.9611630360349, 858.3326376711514 492.31998148005624, 866 490.03373195028007 C 892.7174445758375 482.0671402491806, 931.2432077363218 461.7485323313282, 950.8022606972462 445.3087545766406 L 958.1045213944924 439.17105745964056 964.3022606972462 440.97832882145894 C 973.6729787889749 443.7108462152335, 974.566304753971 444.109546809684, 1002.5 458.0263739510283 C 1030.3122012208773 471.88267163746707, 1039.8279301140183 475.32415565853125, 1053.6662180811306 476.53128554759775 L 1061.6909127041904 477.2312889550386 1062.3113954857422 471.29483008521396 C 1063.4406072573656 460.49111491877636, 1063.569063847762 460.3875507754455, 1070.5238040010636 464.6738303377665 C 1078.1152417948456 469.3525133578179, 1083.9098435038209 473.8954614174526, 1094.2526806647447 483.27718905172526 C 1104.8066574873728 492.8504361663958, 1106.635374573041 494.3247290639917, 1117.5 502.0189386928875 C 1136.850528353827 515.722772532828, 1153.9508189771634 526.9495522925937, 1156.4159548126086 527.5682620023945 C 1163.6473089936778 529.383216368196, 1167 524.7786255633238, 1167 513.0321186309016 C 1167 509.1644533839057, 1167.3724541399197 506, 1167.8276758664879 506 C 1168.675255168463 506.00000000000006, 1187.0970490979457 516.8918786454943, 1188 517.9268789619969 C 1191.5348438857877 521.9786657560004, 1224.6259796476527 544.5024010185691, 1231.5290741364333 547.5552770057907 C 1245.437406295797 553.7062015426969, 1256.6143635852357 550.6248898290229, 1260.406529040718 539.5942158910859 L 1261.654897792629 535.9629532739094 1273.5774488963145 547.2058916561782 C 1280.1348520033416 553.3895077664259, 1288.4708950223437 561.3853432797963, 1292.1019889385416 564.9744150192234 C 1295.7330828547397 568.5634867586506, 1300.6856326921964 573.3, 1303.1076552440009 575.5 C 1305.5296777958056 577.7, 1312.2337827734618 583.8079195249509, 1318.0056663054593 589.073154499891 C 1329.0540736327653 599.1517467574487, 1344.1490163143574 611.0000000000002, 1345.9409635375935 611 C 1346.523433591917 611, 1347.0173037904585 610.4375, 1347.0384528676855 609.75 C 1347.0596019449124 609.0625, 1347.1721019449124 605.5309086278509, 1347.2884528676855 601.9020191730019 C 1347.7624743172257 587.1176805651744, 1352.5992633375356 588.523577236671, 1376.891887411085 610.5067711923009 C 1381.3419615606747 614.533789551914, 1386.9136624498376 618.410571731683, 1390.891887411085 620.247952852345 C 1399.6178093508574 624.2781030798172, 1408.938896902499 630.1082853341276, 1417.3397688002572 636.790654321993 C 1431.2092230387925 647.8229390669775, 1448.1206983320455 657.0262062537333, 1455.8444219420844 657.7449829451718 C 1464.840887927671 658.582202190997, 1470.6329484593946 651.7661826036422, 1471.6955400304819 639.091598578721 C 1472.0225338058403 635.1912193604245, 1472.7219553723705 632, 1473.2498101783267 632 C 1477.5743775387432 632, 1500.62005876938 647.4369485810741, 1517.5250235491894 661.6573655333514 C 1548.643446740788 687.8341105574211, 1562.269667957013 697.2157182642353, 1577.38604897078 702.8714812094047 C 1592.094181875253 708.3744989619995, 1605.9857107500034 702.2462093594761, 1605.9962619395615 690.25 C 1605.9983178728025 687.9125, 1606.2564211297652 686, 1606.5698247328114 686 C 1607.4005329791441 686, 1616.1214964239043 691.9595318004875, 1618.7463826108342 694.320936597682 C 1620.6974978945557 696.0762024121774, 1621.3074826653487 696.1733996677087, 1623.387123580658 695.060409626348 C 1624.704020678102 694.3556276881957, 1636.7205318767315 683.1212050691901, 1650.0904817998344 670.0950260285576 L 1674.3994816600214 646.4110641364987 1660.4497408300108 639.646412792403 C 1643.746387200865 631.5464512981206, 1616.1749917576633 614.4347865993046, 1602.949345086311 603.9598805658297 C 1600.327768526625 601.883553501857, 1598.9023504806814 599.8511999605092, 1598.5543068071643 597.6934581388082 C 1593.9089378386489 568.8938916955763, 1591.9645530312412 558.1632896985961, 1587.0130538214312 534 C 1583.8009601420563 518.325, 1580.2780292899263 501.675, 1579.1843185944758 497 C 1572.0173141188066 466.36507427135507, 1567.5688288043466 437.1169055145511, 1566.2182633104335 411.75 C 1565.5842299837268 399.84131170303334, 1565.6879908875012 398.00078943546174, 1566.9930981331017 398.0058951113929 C 1567.8218941598957 398.0091374226589, 1572.775 398.6437521873448, 1578 399.41615014402805 C 1583.225 400.1885481007114, 1591.775 401.3322627303958, 1597 401.9577382099934 C 1612.576704555898 403.82239787557256, 1611.5799720755674 403.3418119009697, 1613.276202360441 409.8054954854785 C 1615.1147164754636 416.81136822052855, 1619.0642136712415 428.9696863801505, 1631.8552140484385 467 C 1637.3122813551802 483.225, 1644.2423456731694 503.925, 1647.255356977303 513 C 1653.8467711850174 532.8529238350152, 1657.955094095532 544.7974658557395, 1659.1216252835166 547.5 C 1659.5964330891861 548.6, 1661.986320209051 555.575, 1664.432485549883 563 C 1674.0238933141459 592.1134051574059, 1676.9332099576607 599.4065400049229, 1684.5548314098753 613.4431108014431 C 1688.9021114778393 621.4493998606495, 1692.8046480038481 628, 1693.227134801006 627.9999999999999 C 1694.2644768217879 627.9999999999998, 1719.0864496648821 604.6929163600928, 1718.7588346915004 604.0265040745014 C 1718.6164756111752 603.7369268335256, 1714.5038446974725 593.375, 1709.619654883272 581 C 1704.7354650690716 568.625, 1698.4873082163604 553.1124389249671, 1695.734861877247 546.5276420554826 C 1692.9824155381336 539.942845185998, 1688.0813413059632 527.3428451859979, 1684.843585805757 518.5276420554826 C 1681.6058303055509 509.71243892496716, 1677.882956050088 499.575, 1676.5705319047286 496 C 1670.2088389654791 478.6709586697013, 1657.9957076506537 442.621748871256, 1656.0737041329642 435.5 C 1654.8862408243426 431.1, 1653.4462187498848 426.38367539434324, 1652.8736550786134 425.01927865409607 C 1651.8418573808674 422.56054526594056, 1651.85099776409 422.5551797055502, 1653.904889722108 424.41392638147875 C 1655.0446324473012 425.44537937178643, 1657.4134445471714 428.58670397744316, 1659.168916610708 431.3946477273827 C 1662.4515540648702 436.6453500963858, 1665.4122077646493 440.75754373834127, 1682.6620220337195 464.0253463996072 C 1688.176953726799 471.4642869193912, 1693.2748002165235 478.6642869193912, 1693.9905697886632 480.0253463996072 C 1694.7063393608028 481.38640587982326, 1695.8485078486542 482.8303300182455, 1696.5287219838888 483.23406670721226 C 1697.208936119123 483.63780339617904, 1699.9557430917077 487.2309600651819, 1702.632737478521 491.21885930499644 C 1705.3097318653345 495.206758544811, 1710.443981161127 502.5264285265655, 1714.0421803580603 507.4847925977842 C 1717.6403795549934 512.4431566690029, 1728.3577081349551 527.8625, 1737.8584660913084 541.75 C 1747.3592240476619 555.6375, 1755.6058361327584 567, 1756.184270724856 567 C 1757.477553860317 567, 1762.138294882399 563.0146808227282, 1772.1953038746728 553.3092419944426 L 1779.8906077493457 545.8829484435386 1771.8817008782012 535.1914742217693 C 1767.4768020990716 529.3111633997962, 1761.9405921679904 522.025, 1759.5790121424648 519 C 1757.2174321169393 515.975, 1752.9011121092603 510.125, 1749.9871899031782 506 C 1747.0732676970963 501.875, 1742.7340908845747 495.9466803612427, 1740.3445747642418 492.8259563583171 C 1737.9550586439088 489.7052323553915, 1736 486.91429204585984, 1736 486.62386678158 C 1736 486.3334415173002, 1733.8625 483.0886253268821, 1731.25 479.41316413620643 C 1724.5867210325362 470.03876289312194, 1712.3715339239732 452.30914817790784, 1704.4399655720044 440.5 C 1700.74591200619 435, 1696.0597251085353 428.025, 1694.026216910549 425 C 1691.992708712563 421.975, 1689.9664924183314 418.825, 1689.523514034479 418 C 1688.5121175015536 416.1163818143752, 1696.7864222796143 423.8832313087987, 1712.9609071818593 440 C 1719.8605274366093 446.875, 1728.9624261382855 455.65, 1733.1873487411394 459.5 C 1737.4122713439936 463.35, 1750.4609953056774 475.7659628250726, 1762.184513100437 487.09102850016137 C 1782.3099736842996 506.5324766084701, 1800.341901957235 523.203188828835, 1801.8296660660926 523.7434001167217 C 1802.1983497297417 523.8772701809186, 1807 519.731818440451, 1812.5 514.5312851379048 L 1822.5 505.0757700423662 1817.5 500.3438678642457 C 1808.5359976041589 491.860511371934, 1797.5462091150732 481.6836563131934, 1786.9220675211227 472.02783729254327 C 1772.8283212280812 459.2186458557443, 1760.0097990142685 446.97801771104736, 1738 425.3113104880309 C 1727.825 415.29491979535476, 1717.5685519562514 405.2772605612712, 1715.2078932361144 403.0498455234008 C 1712.8472345159773 400.8224304855304, 1711.2047162630447 399.00000000000006, 1711.557852674042 399.00000000000006 C 1711.910989085039 399.00000000000006, 1718.1174371287877 402.2113562819942, 1725.3499594379275 406.13634729332034 C 1732.5824817470673 410.0613383046465, 1741.425 414.85144609309725, 1745 416.7810312676554 C 1748.575 418.7106164422135, 1756 422.8487274852943, 1761.5 425.9768335856128 C 1767 429.10493968593124, 1774.425 433.1762039750316, 1778 435.0240875613914 C 1784.796533540027 438.53715127405155, 1806.3728250752886 450.2569056313859, 1828.5 462.45454724340595 C 1835.65 466.39599651664986, 1844.0504303752232 470.92738759043823, 1847.1676230560515 472.52430518515797 L 1852.835246112103 475.427791721012 1858.1676230560515 470.5110977281097 C 1878.9293411684912 451.36784964216787, 1879.350119393794 450.9201048177257, 1877.9006364073402 449.5134460736607 C 1877.1302863833032 448.7658556518141, 1867.5 443.46917409216246, 1856.5 437.7430426077682 C 1845.5 432.0169111233739, 1834.025 425.95072323828555, 1831 424.26262508534955 C 1825.531532417977 421.2109523499435, 1765.690784593699 389.8410849480483, 1748.5 381.0142674903535 C 1728.4854240096415 370.7375399915512, 1717.81714979316 364.6870749355331, 1717.2901510272093 363.3137381655877 C 1715.5046544264305 358.6608086088399, 1718.0853347297173 359.3234704737081, 1772.5 377.49041143767215 C 1843.2760045287027 401.11976741278625, 1880.1348968187117 414.17856943067505, 1905.5937224611803 424.64442132406054 C 1906.5899898295272 425.05397622143727, 1934.114000759401 400.93804246245656, 1934.790308628307 399.063013883527 C 1935.2718915353469 397.7278501876142, 1925.7350900036313 393.5709462368109, 1899 383.46272327847385 C 1873.6092432156906 373.86277689258736, 1868.9004770767035 372.0660798528269, 1865 370.48953719346764 C 1863.075 369.71146708573826, 1857 367.45337602990156, 1851.5 365.4715570693861 C 1846 363.48973810887065, 1833.9955520728493 358.9527024375026, 1824.8234490507762 355.389255577457 C 1815.6513460287028 351.82580871741146, 1803.501346028703 347.1906787716358, 1797.8234490507762 345.0889668090666 C 1792.1455520728491 342.9872548464974, 1777.15 337.3169062964175, 1764.5 332.4881922533335 C 1751.85 327.6594782102495, 1734.975 321.2751124272054, 1727 318.30071273545775 C 1713.11716729343 313.1228953908802, 1703.4428441957023 309.39642257379853, 1672.5 297.3077433587523 C 1664.8 294.2995250654649, 1654.9 290.45290871688303, 1650.5 288.75970702857046 C 1646.1 287.06650534025783, 1636.65 283.3268406251806, 1629.5 280.4493409950654 C 1622.35 277.5718413649503, 1612.675 273.74985004221423, 1608 271.9560269445409 C 1599.4780713735054 268.6861162692618, 1544.9687831970796 246.75197980716564, 1531 240.97179353985973 C 1528.525 239.94765558813228, 1521.55 237.08640863992008, 1515.5 234.61346698827703 C 1482.9452083564927 221.30667356417962, 1454.6348148614202 209.536606294063, 1448 206.55029150217325 C 1443.875 204.69363856251482, 1436.225 201.53500400874987, 1431 199.5311036049178 C 1425.775 197.5272032010857, 1420.6497170897553 195.55208808222943, 1419.6104824216784 195.1419588963483 C 1418.368437432576 194.65179154930345, 1423.5084207540942 193.2832947273857, 1434.6104824216784 191.1482781692476 C 1443.8997170897553 189.3618829552233, 1458.025 186.58505020093878, 1466 184.97753871528198 C 1515.6431794988544 174.97102069284563, 1537.0880898139537 172.51867059400195, 1575 172.51275537758937 C 1613.7011280540441 172.5067170232378, 1626.503941367034 174.39799166672046, 1651.7145962082081 183.84529355077262 C 1656.8037815951254 185.75238684116948, 1660.165982102647 186.54045231076796, 1660.5515527299474 185.91658593073237 C 1662.48368081703 182.79033701521462, 1660.8230742951607 161.93365257641844, 1657.3733993124256 146 C 1650.9335148945136 116.25491344522456, 1627.8495804906577 86.37595490883172, 1601.8002360682212 74.0682308630887 C 1595.7785513125025 71.2231214790687, 1586.6555226656828 68.24841651748287, 1581.5 67.44902409620511 C 1580.4 67.27846298719113, 1576.35 66.65045620564139, 1572.5 66.053453470539 C 1568.65 65.4564507354366, 1554.060454914522 64.28495040161458, 1540.0787886989383 63.45011939537894 C 1507.483539067598 61.50389033879457, 1501.5953631008892 60.63697766226087, 1490.1030891568555 56.0922266121767 C 1475.6606549448036 50.380800973470045, 1466.6516176149537 41.66336190640875, 1459.5210028157176 26.5 C 1452.5107125101222 11.592509977663045, 1443.4105101066946 5.507464378235305, 1422.826444729415 1.9633963831507493 C 1411.3909327648478 -0.005516521962947163, 1401.7281095784078 -0.26421893562825094, 1388 1.0309892452943388 M 2473.848365296259 11.6333388409451 C 2407.344498530595 58.95684809083152, 2308.588580253675 137.2307158312145, 2222.5 210.85186716036452 C 2192.9875025391784 236.09033706266686, 2163.4914004627994 262.01280941407896, 2104.045355006512 314.9550212581077 C 2073.796588350615 341.89435086405535, 2003.3276893070674 406.42785048991334, 1961 445.95206377027876 C 1928.8931273619937 475.9324123951257, 1859.260718948466 541.8187181579603, 1831 568.9582895251319 C 1637.3674603502943 754.909118957767, 1462.5583271820083 929.8431796210491, 1318.933062117303 1081.3911764784555 C 1304.3948779527864 1096.731323541606, 1290.475 1111.4886751064369, 1288 1114.1852910669686 L 1283.5 1119.0882291770265 1273.9074414846182 1105.2941145885134 C 1208.8375934726223 1011.7235683890448, 1152.3694890373524 929.1975476050802, 1131.0408915643438 896.5 C 1120.8195114084301 880.8302371541047, 1110.954158992714 866.8320899223595, 1108.6382512754583 864.7124425029094 C 1097.1554850980938 854.2027768911715, 1070.249657896035 839.0209202076472, 1051 832.1895371939061 C 1002.9462691252068 815.1360683677111, 938.1226478051767 815.8073306772978, 884 833.9188575160082 C 847.806309336588 846.0306633205215, 821.8121604013551 861.4368696193044, 790.5 889.3344163221575 C 785.7840885770767 893.5360541996201, 785.5926364242807 893.8945833607442, 787.1304144509082 895.6445813561302 C 789.9753588747824 898.8821403227408, 806.6121538012035 925.2825839602936, 830.5211049740592 964.5 C 856.0486236180907 1006.3723227081974, 880.6631043768261 1046.3337484813221, 887.424109932947 1056.8816037892798 C 889.8278604927385 1060.6316987848606, 900.1006645349566 1077.1549677031921, 910.2525633600983 1093.5999791633499 C 928.2408251431619 1122.739076810599, 964.9881904489232 1181.4653716336934, 999.98362789281 1237 C 1009.5147260005975 1252.125, 1024.381017732757 1275.75, 1033.0198317420536 1289.5 C 1041.6586457513502 1303.25, 1055.6967259688752 1325.525, 1064.2155655587762 1339 C 1121.3016465323092 1429.298089663559, 1159.1043478239822 1489.1733936415326, 1191.7497099153063 1541 C 1294.7010730308307 1704.441892766567, 1289.2304503848782 1695.9999999999998, 1292.1947799451946 1696 C 1295.3326499088826 1696, 1294.3128727820742 1697.6199777101367, 1318.00430926002 1655 C 1387.5039748525996 1529.972790224221, 1483.2707601647871 1371.1959696776505, 1571.5483203642655 1234.635968561292 C 1595.7648532015721 1197.1744693555574, 1677.457624981877 1074.1744516415097, 1696.5023571927409 1046.5 C 1704.0722291104657 1035.5, 1717.0479300524264 1016.6, 1725.3372481748756 1004.5 C 1777.0440810628832 929.0230224364914, 1871.3049516575427 796.5198557625952, 1923.4581921461292 726 C 1931.7966633490257 714.725, 1946.9030532903816 694.25, 1957.0279475713646 680.5 C 2051.728434929434 551.8930570495756, 2162.9371056605314 407.6134828036728, 2285.3047128711178 254.60126727622014 C 2357.0306436602777 164.91295979848127, 2384.9657109326463 130.6632267930746, 2464.272438113366 35.17824794470949 C 2479.0374076587577 17.401284314299716, 2491.3644688591576 2.213784314299717, 2491.6659074475874 1.4282479447094947 C 2492.7618828759023 -1.427818239795022, 2489.89863440409 0.21212236846543142, 2473.848365296259 11.6333388409451 M 1393.5 40.09599896475797 C 1406.6982382845435 41.42001306956461, 1412.4591055649669 43.155737333829855, 1419.3181794638133 47.87490418390462 C 1427.3885979203712 53.42749799001967, 1435.0301856338976 63.87299598055715, 1433.6510660476165 67.4669240130701 C 1432.559453121044 70.31162170026816, 1422.2379947515242 68.59955743115928, 1411.5 63.79263232433076 C 1386.3357922091773 52.527729982486676, 1385.6468969549385 52.46492074817606, 1364.9287577313062 59.54655275012554 C 1355.8929409790878 62.63506993719374, 1344.675 66.268399921043, 1340 67.62061938090167 C 1335.325 68.97283884076035, 1327 71.60926530582833, 1321.5 73.47934485883053 C 1288.0755300948524 84.84414808420397, 1269.3341100694995 90.54195606675181, 1226 102.51346615792204 C 1196.064978212369 110.78333520185244, 1150.8402636167912 119.98770675720806, 1120.5 123.98538052540309 C 1105.3473930016742 125.98190831705521, 1071.161816954676 127.58153948631256, 1062 126.72274622820427 C 1038.1611587332725 124.48818552236843, 1022.5237788581775 114.90675410949144, 1013.4909773213187 97 C 1011.1327416005059 92.325, 1007.6353564746719 85.73771398665535, 1005.7190103750208 82.36158663701188 C 998.707296384534 70.00868265193756, 989.0465603455574 47.04286939138185, 989.0076394239004 42.63477668765663 C 989.0034377407552 42.15890386586778, 991.3625 42.039579290275825, 994.25 42.36961096411895 C 1012.4546460755035 44.45034163633371, 1076.5356952520567 46.359463896463495, 1102.5 45.59462814649469 C 1115.7 45.20579309015112, 1142.25 44.47119396243805, 1161.5 43.96218564046565 C 1180.75 43.453177318493246, 1209.55 42.54339111046289, 1225.5 41.9404385115093 C 1291.9537326204986 39.42830993510201, 1377.4837804745948 38.48929206190184, 1393.5 40.09599896475797 M 913 59.99947809019622 C 913 60.54919103980414, 911.7625 63.239685503548735, 910.25 65.97835467629531 C 906.0157139125953 73.64533568533004, 899.0122932461269 75.97327365091377, 856 84.01106192713686 C 846.925 85.70692427489236, 837.7 87.49256564373849, 835.5 87.97915385790603 C 833.3 88.46574207207357, 822.95 90.24793350848029, 812.5 91.93957927214318 C 779.5718838730539 97.26998196607121, 768.5679900755927 99.04197853548598, 766.25 99.38738300815717 C 754.1820870330076 101.1856267359868, 788.7552838984683 83.60912679589653, 801.5 81.46680640370826 C 803.7 81.09699786303409, 807.75 80.20826184195148, 810.5 79.49183746796916 C 816.9573861531579 77.80957243802793, 835.2659491410882 74.58023539592726, 850.5 72.43647863018472 C 857.1 71.50771747631056, 863.175 70.63294649825743, 864 70.49254312339997 C 864.825 70.35213974854251, 870.225 69.47052785457208, 876 68.53340558124344 C 887.1760913552201 66.71983603358414, 903.0326849239823 62.76068511238154, 908.307371946971 60.46674480376916 C 912.1813612752846 58.781962325373456, 913 58.70044667525617, 913 59.99947809019622 M 964.6803318804788 69.16468083887057 C 968.5359133661267 73.20815657966074, 973.9010179700923 83.1907415126852, 976.9530925718602 92 C 978.1916947444532 95.575, 979.4402333833483 99.175, 979.727622880516 100 C 980.3354702888835 101.744928457181, 987.4720447999089 121.59277159599641, 989.6466419170238 127.58622272119197 L 991.1292415017668 131.67244544238395 984.8874622855333 144.08622272119197 C 981.454483716605 150.91380022453637, 977.0226415357358 159.2, 975.0389241058242 162.5 C 973.0552066759127 165.8, 965.1882180108985 180.875, 957.5567270724594 196 C 949.9252361340202 211.125, 942.7120752951241 225.075, 941.5274807638013 227 C 937.9001022693781 232.89459381850037, 860.1987707381369 389.25605559193707, 827.2326535762653 457 C 807.27658327856 498.0088610136577, 795.6536138728292 521.8037103675539, 760.8013088902967 593 C 740.7548974619875 633.9508098490583, 711.5447233608371 693.3226059213113, 707.4206786981779 701.5 C 705.4790366789169 705.35, 698.2768129471466 719.75, 691.4157370720216 733.5 C 684.5546611968965 747.25, 678.0216453121126 760.3, 676.8979239947238 762.5 C 675.774202677335 764.7, 666.9542155345626 782.025, 657.2979525663408 801 C 647.6416895981189 819.975, 637.2685487622928 840.225, 634.2465284867271 846 C 631.2245082111615 851.775, 624.0235740224837 865.725, 618.2444525118874 877 C 612.465331001291 888.275, 607.2765252096474 898.0799928571686, 606.7137729749013 898.7888730159302 C 604.2393520927649 901.9058181997437, 596.1637681526281 889.694816811786, 591.3370213334026 875.5378564914904 C 588.602771292106 867.5182377316613, 585.9991200531072 851.7644720205324, 586.0018411201304 843.2565824684533 C 586.0042257291635 835.8006873708309, 588.4036154104891 813.1250040273696, 590.4731510430627 801 C 594.9188483279454 774.9535301372723, 591.9563204278788 781.9721326301409, 633.9490957224912 698 C 670.3584615466276 625.1929022429731, 681.0631695201029 603.9996655342482, 710.7243252134343 546 C 717.3341984567538 533.075, 730.0583443059027 508.1, 739.0002048782094 490.5 C 747.9420654505161 472.9, 759.1971834341945 450.85, 764.0115781752722 441.5 C 794.8917194527821 381.5279087044544, 885.8743119087302 202.04699477035842, 928.760809166155 116.5 C 942.8228606888298 88.45, 954.749600615499 64.94935114164959, 955.2646756698646 64.27633587033242 C 956.5110422675502 62.64778922107707, 960.3831404233748 64.65807412467974, 964.6803318804788 69.16468083887057 M 1367.6755441354635 92.57196022594505 C 1371.9287729240561 95.08653835021481, 1377.0042327252738 97.85858912799345, 1378.9543436937251 98.73207306545314 L 1382.5 100.3202256790162 1378 101.08598973800957 C 1367.7908647678732 102.82327614560191, 1346.0988441210145 101.5070455960757, 1343.6055323213507 98.99899886563614 C 1342.7965759765782 98.18526176470533, 1343.888448315909 96.56077247821301, 1347.6756534951774 92.94346654428551 C 1354.503648496227 86.42178481198108, 1357.1886043379207 86.37191063628708, 1367.6755441354635 92.57196022594505 M 1533.0501057350934 99.06618544145712 C 1554.6129247863457 100.77548986396138, 1569.0595359180356 104.76270307773734, 1589.74164358911 114.71284795492186 C 1600.8186241939197 120.04197415291436, 1613.5444130606845 130.05876717936692, 1620.7216005168214 139.09796228946408 C 1621.8159191576403 140.4761845760398, 1618.6901376705753 140.6293772064843, 1590.7216005168214 140.56824385980173 C 1548.6813327115708 140.47635266605647, 1519.9500852304893 141.61771892936196, 1488.5 144.6290590502252 C 1465.4987879901541 146.83142104848721, 1457.8889646065368 147.66505473579983, 1445.5 149.33958211329838 C 1439.45 150.15731716667975, 1432.475 151.06993222441227, 1430 151.3676155749262 C 1413.0097814885355 153.41113281632278, 1371.800554211403 160.25166236864902, 1351.5 164.39823044781383 C 1344.9 165.74633892985298, 1330.5 168.48004319412703, 1319.5 170.47312881286726 C 1308.5 172.46621443160748, 1295 175.17313128327515, 1289.5 176.48849959435097 C 1284 177.80386790542676, 1277.925 179.1613503551858, 1276 179.5051272604821 C 1272.6836383114203 180.09738105692017, 1257.7025140186936 183.43905159649404, 1235.5 188.53900577375552 C 1230 189.80236486684387, 1219.875 192.2245895412553, 1213 193.92172727244764 C 1206.125 195.61886500363997, 1195.55 198.1491814131851, 1189.5 199.54465262699236 C 1173.0022460065302 203.3499651543248, 1145.4819508397045 209.83800142899585, 1137 211.9217693096228 C 1132.875 212.93516147258487, 1126.35 214.48800859734374, 1122.5 215.3725406979759 C 1118.65 216.25707279860805, 1106.275 219.17214161163915, 1095 221.8504713936006 C 1083.725 224.52880117556205, 1070.9 227.49590934258867, 1066.5 228.44404509810425 C 1062.1 229.3921808536198, 1050.85 231.95207771703136, 1041.5 234.13270479457438 C 1032.15 236.3133318721174, 1021.8 238.72313356333237, 1018.5 239.48781966394097 C 1008.7478040933834 241.7476283488506, 984.7019351953664 246.03526852871985, 984.2598735952392 245.5932069285684 C 983.4267895478079 244.7601228810917, 988.4365777528069 228.14396178259832, 992.7300019165216 217.5 C 998.260495281999 203.78918136750676, 1004.6652916258695 191.026588113399, 1010.9853873009653 181.1231902078178 C 1019.7166160967191 167.4416199572681, 1015.9121176207939 168.98280402897646, 1040.8105458394134 169.04116163913662 C 1070.4052363126139 169.11052647591592, 1085.488859451909 167.82673452751936, 1123.5 162.00332633336626 C 1142.162239735158 159.14422139129084, 1205.1087664267438 143.78520343483206, 1230.5 135.89521508851232 C 1248.5159337771968 130.2970031253145, 1271.7448278552267 123.99560008738041, 1300 117.0416480755811 C 1309.075 114.80817683060933, 1317.915866232401 112.59154580684475, 1319.6463694053355 112.11580135610427 C 1322.2548441232002 111.39868774930487, 1323.622502190454 111.74128004238044, 1327.6463694053355 114.11976595093003 C 1334.4049258743821 118.11471172456604, 1346.5264193491514 122.65523219253464, 1352.5948712735985 123.46508165924527 C 1357.94074100944 124.17850079950976, 1366.535799201181 122.76400900776285, 1379.5 119.03729502995192 C 1388.1569639591874 116.54874759901057, 1432.1031354533695 106.75039250241862, 1449 103.5413904708188 C 1473.1351967722462 98.95770600903835, 1508.1577682788152 97.09294704441118, 1533.0501057350934 99.06618544145712 M 878.0068416573018 120.01651722184727 C 880.3214111478165 125.60438227690295, 877.1863261214502 134.7226323528107, 868.1499887047897 148.68471901751678 C 864.1271506782508 154.90042462641256, 862.8930785145302 156.07089689981197, 859 157.36314836364562 C 848.1822748032495 160.95393677663964, 813.3979193223273 166.4066455309463, 788 168.49293116983 C 738.1634608785607 172.5867017870678, 724.89329108257 174.3392156961603, 695.381364350299 180.7245340590644 C 693.7367524001219 181.08036887054877, 693.1112582550139 180.5794242064733, 692.5857357860817 178.48557591223812 C 691.7084737518419 174.99028556295468, 693.4269932934423 172.36568508557502, 702.427294312294 163.4551042878061 C 716.6552850959613 149.3689463690622, 737.9059741951729 139.6844895114622, 769.5 132.8884378836005 C 779.139894054684 130.81484276509738, 815.192596628675 125.42667434658178, 826.1247381734688 124.4257262378692 C 829.7683441688768 124.0921172633555, 841.2433441688768 122.34345486146762, 851.6247381734688 120.53980978922948 C 876.3458534359905 116.24480685380914, 876.4437438040482 116.24286518520587, 878.0068416573018 120.01651722184727 M 566.5508253717458 157.65351825752572 C 565.4629042122147 161.98814141602455, 552.0498144709874 180.27329326924664, 542.4562588714541 190.5 C 536.067824516154 197.31005534835322, 527 208.52194526170578, 527 209.61085427715383 C 527 210.10017608180638, 531.6993986505249 210.5760858744769, 537.4431081122776 210.66843159419938 C 548.8223001613419 210.851382992878, 553.3124940599104 212.21093553173566, 553.8014793702946 215.62146161424 C 554.2393122795899 218.67521501995475, 550.2431762524932 222.910684970464, 536.886220777358 233.54979763425482 C 521.1026957085228 246.12172704973437, 500.58376018871127 266.4949505474472, 498.02416102467174 272.135884527432 C 494.37838846603034 280.17056534709593, 496.31365818507294 287.85797104051676, 502.3644384944223 289.37662022627444 C 504.5405118618429 289.92277987488643, 502.82041640579064 291.9310303187608, 483.63025459241976 311.2492046834009 C 458.61370879729185 336.4326293137528, 455.61523697580884 338.972336600898, 446.6864821445563 342.5406003297565 C 438.1696926384388 345.944227336585, 432.6038125933561 345.5184353548947, 423.8653283641493 340.7947732163598 C 418.24175009358663 337.7549000457978, 416.9832550778416 336.3778603803204, 413.98883887457043 329.9879622137998 C 412.61923859642553 327.06532029895044, 410.1217830368242 317.3617611487426, 407.17149407671377 303.5 C 401.9240521239338 278.84519907209193, 400.80846643856984 250.92626818613815, 404.0347881384098 225 C 405.1306672150722 216.1936696075487, 405.42061466721225 214.23800865869111, 407 205 C 407.51717213180876 201.975, 408.203162661399 197.93531748614168, 408.5244233990895 196.0229277469815 C 409.8829220643732 187.93610416926145, 409.7252922843646 188.03003964723598, 430.5 182.92713904727952 C 449.8187200721364 178.18187333303308, 471.62362052151246 173.78946410702406, 484.780801250132 171.99273956401737 C 501.70975357461356 169.680947641708, 517.9900305980776 166.61074692970917, 540.5 161.48498693626448 C 544.35 160.6083008945199, 550.5629967476242 159.21660179141978, 554.3066594391648 158.3923222627086 C 558.0503221307054 157.56804273399743, 562.1003221307054 156.4960887983311, 563.3066594391648 156.01020240567232 C 566.8001699587982 154.6030924603884, 567.2582017783769 154.83510616295763, 566.5508253717458 157.65351825752572 M 362.51683377333165 202.01860111015495 C 364.0154510765781 203.67455459060818, 364.17803475527444 204.69779517184443, 363.4218213354438 207.71425276776552 C 362.55370303012785 211.17708744850268, 362.0630685573522 211.54625694649627, 355 214.05110785462585 C 350.875 215.51400035129842, 342.1 218.7717931340653, 335.5 221.29064737188554 C 313.78852837780283 229.57671287262585, 284.79863103366495 239.49890264150716, 254.57805605546244 248.9872919909751 C 228.82690987501357 257.07240954189535, 160.59823809194137 274.93157142526434, 159.5325480927433 273.865881426075 C 157.54952890412483 271.88286223747275, 160.68520000686297 264.2480732079948, 166.81528240738413 256.13374746551096 C 170.4026502044982 251.38518635947995, 174.43899393696023 245.3849834902042, 175.78493514618867 242.7999633115649 C 177.1308763554171 240.21494313292564, 178.96737826039083 237.4752744797829, 179.8660504905747 236.71181074902557 C 180.7647227207586 235.9483470182682, 189.15 233.6623060688066, 198.5 231.631719750222 C 207.85 229.6011334316374, 219.325 227.06666193765855, 224 225.99956087471344 C 235.91650111453316 223.27953713013483, 251.59012318553164 220.48952783545846, 272 217.4552406443396 C 303.3170770101241 212.79940629027138, 338.90174222177626 205.74395099999197, 354.5 201.09777154954958 C 359.2014071950345 199.69738557001878, 360.5570833267259 199.85310124181194, 362.51683377333165 202.01860111015495 M 840.5116943767138 210.78935573920646 C 838.9422289072219 219.15532593632943, 830.3742520097184 235.0945169996483, 824.6208036382362 240.35152037584544 C 813.9679502415897 250.085176203868, 806.9367148494362 253.97460430390134, 792.9058768859701 257.8950842619895 C 779.482388636179 261.6458592896798, 770.1650638505755 262.2277798497209, 719.5 262.47970377142155 C 688.5400669933026 262.6336470835555, 667.5546829398689 263.15511555286884, 662.5 263.8961039990837 C 650.3915160265715 265.67114050131795, 650.6128126260074 265.67582940015564, 650.1929086109079 263.6353376490506 C 649.4597886075096 260.0727965308148, 656.6537681642504 247.66102720566496, 663.7095301719004 240.31511724153114 C 678.5155693258603 224.9002222333795, 695.8904175527349 216.73874531010776, 726 211.05545261577348 C 743.3786322753973 207.77517285695342, 754.731232468241 207.20186913390492, 799.8197590941721 207.32757160135085 L 841.1395181883443 207.44276710808143 840.5116943767138 210.78935573920646 M 1343.0141169321882 212.0704341714455 C 1346.0313526194848 213.20917296574052, 1353.225 215.85969867770555, 1359 217.9604913091456 C 1364.775 220.0612839405856, 1371.975 222.77741001090965, 1375 223.99632702097676 C 1378.025 225.21524403104388, 1386.35 228.21006716394086, 1393.5 230.6514895385256 C 1400.65 233.09291191311033, 1408.75 235.9602325659709, 1411.5 237.02331321154912 C 1418.5090799846653 239.73284676609723, 1473.6315882314682 259.56846742851764, 1515.5 274.44730958804513 C 1524.3 277.5745791803981, 1536.675 282.0802407135652, 1543 284.45989077286106 C 1549.325 286.83954083215684, 1559 290.4452495808368, 1564.5 292.47257688103866 C 1576.5119806552111 296.90025257409445, 1579.8563645937068 298.20121328832795, 1624 315.61799436911167 C 1642.975 323.104541817371, 1660.3754613969727 329.94880570599355, 1662.667691993273 330.82746967716184 C 1666.061489549732 332.12838924568723, 1666.9225222529108 332.9890670192731, 1667.3046540029213 335.4625202669157 C 1667.9270693537926 339.49127545658894, 1666.3900157527933 341.06040761162535, 1657.147687015022 345.8314647773704 C 1645.6084756410262 351.7882142801181, 1634.0195972915049 354.28453280644067, 1621.553770780474 353.4986220156157 C 1573.7231855986274 350.48313218887824, 1523.6896266396884 340.289558987001, 1472 323.0293261712278 C 1448.8731403515815 315.3067905721233, 1445.9496605115305 314.24895635722044, 1425 306.02280968381916 C 1419.225 303.7551835801529, 1410 300.1611719813428, 1404.5 298.0361172420189 C 1389.317103685955 292.1698471022327, 1367.6395413622904 283.15698918090504, 1346 273.71363206009016 C 1287.2780476031826 248.08774849672665, 1274.6511199254362 242.5452948752769, 1266 238.5984955017791 C 1260.775 236.2147547948803, 1253.161922436302 232.96742665415775, 1249.082049858449 231.3822107446179 C 1242.2176600851044 228.7150833600381, 1241.881850109384 228.45286084543073, 1244.582049858449 227.868314788426 C 1246.186922436302 227.5208879220603, 1249.525 227.17910885159176, 1252 227.10880574294038 C 1256.0289513225785 226.99436218634145, 1273.0649906446522 224.0872941764764, 1288 220.96568489327552 C 1291.025 220.33342093836197, 1296.425 219.20599139417186, 1300 218.46028590618639 C 1303.575 217.7145804182009, 1312.5392766681498 215.91305232345, 1319.9206148181106 214.45689014007326 C 1330.6933793059586 212.3316803286638, 1337.3808741552518 210.66165840195896, 1337.5141169321882 210.0633863004191 C 1337.5218812448918 210.0285238351886, 1339.9968812448917 210.93169537715048, 1343.0141169321882 212.0704341714455 M 364.4125570390746 252.8093682545202 C 364.7815948825396 256.5545207945063, 364.8087098635084 260.3349191685493, 364.4728125523386 261.2102535301713 C 363.86734218838785 262.7880840065876, 355.4463006253209 266.49031597057456, 341 271.5298554778776 C 306.27728174643147 283.6427496352307, 260.93535132607394 298.01114098470305, 237 304.48638570258566 C 229.575 306.4950753338886, 218.325 309.6760399961535, 212 311.5551960631743 C 197.54833280709926 315.84878311204466, 171.40188786122758 323.42674250704385, 150.15351076088223 329.4800108954596 C 141.16294167936746 332.04125721361333, 133.17544167936745 334.3791823087169, 132.40351076088223 334.67539999568976 C 131.47697971659503 335.03094331734593, 131 334.5094525750121, 131 333.14091573335935 C 131 331.18912646808667, 131.7220892364298 329.2285343953156, 136.02397136196865 319.5 C 136.99679422424302 317.3, 138.09290759766012 314.4931414006245, 138.4597788584511 313.2625364458322 C 138.99272467416728 311.47486368007196, 140.87305767838615 310.50273216688817, 147.81340875721736 308.4267130215519 C 152.59103394074782 306.9976150929901, 158.975 304.9901219717737, 162 303.9656171966267 C 165.025 302.9411124214796, 172.225 300.69247118661553, 178 298.96863667470643 C 183.775 297.2448021627973, 189.625 295.4439253860026, 191 294.9666882818292 C 202.7478703697015 290.8892194560544, 273.0488574376298 270.24633401179176, 298.5 263.40084151620675 C 303.45 262.0694597218489, 311.55 259.84639214655164, 316.5 258.46069134887944 C 337.814669858712 252.49387215184183, 344.0019019292373 250.85409359737312, 352.4742278846523 248.9265787236493 C 357.41005322121106 247.803643085858, 361.64755322121107 246.68578011212227, 361.890894551319 246.4424387820144 C 363.20140401866684 245.13192931466637, 363.80661646622457 246.66002634913986, 364.4125570390746 252.8093682545202 M 1177.9486203489762 251.9797480333333 C 1180.7110838967383 253.0686094516666, 1187.590243042303 256.16337684662284, 1193.2356406724534 258.85700891101385 C 1207.2107756580324 265.5250727335339, 1212.8815534294606 268.06366906889554, 1216.9417740373824 269.46936328487357 C 1218.8347497579425 270.124732851785, 1220.708883760432 271.2997318446067, 1221.1065162651364 272.0804721578108 C 1221.5041487698409 272.8612124710149, 1222.5383563344487 281.6, 1223.404755297598 291.5 C 1224.2711542607474 301.4, 1226.1119736411645 318.95, 1227.4954650318582 330.5 C 1228.8789564225522 342.05, 1230.462482465823 355.55, 1231.014411794683 360.5 C 1231.5663411235425 365.45, 1232.4784143889267 373.1, 1233.0412412733144 377.5 C 1235.4907769528431 396.64968401279003, 1235.1123864743163 447.2271333664164, 1232.500102943829 449.83109183771217 C 1232.1310272510875 450.1989913269705, 1227.0300185780588 450.5, 1221.1645281148767 450.5 C 1208.1303700644064 450.5, 1201.7988062330944 448.4212175308126, 1191.6236604946803 440.8011263299979 C 1179.7551537972938 431.91288966227825, 1169.982770163834 416.67364343094266, 1166.4878531374334 401.60385656369715 C 1162.4352399956422 384.12933117701334, 1161.8148579910026 374.7226120271127, 1161.7655112276739 330 C 1161.7214586264083 290.07544847322185, 1160.9645168968723 273.31435991710737, 1158.5768341427342 259.3925847762428 C 1157.9298286705318 255.62011346140787, 1158.1284818546671 255.0696769308745, 1161.0129169943095 252.6425847762428 C 1164.914743744872 249.3594140212934, 1170.7239542756863 249.13205067496628, 1177.9486203489762 251.9797480333333 M 1124.20656525494 264.5 C 1124.595176145157 269.45, 1125.6292774361013 279.8, 1126.5045681237057 287.5 C 1128.6331076905244 306.2249274973644, 1129.806108453084 317.26198583972814, 1130.4368684584904 324.5 C 1130.7244484454523 327.8, 1131.4032560211533 335.45, 1131.9453297378263 341.5 C 1133.472016372114 358.5391108318818, 1135.2009396380768 393.8366550784079, 1134.8319124704155 400.43221736945605 C 1134.4276525944636 407.65748810090497, 1133.627578424512 408.0303479635987, 1118.5 408.04340501923724 C 1105.7907327657854 408.0543747597169, 1101.6324306730871 406.8092896891031, 1081.3725121668067 396.9266367373759 L 1065.2450243336134 389.0597558716288 1062.0921974212515 372.2798779358144 C 1057.9109971152 350.0268229121973, 1058.2189631130768 352.15773780739363, 1056.0564942877502 330.5169242369442 C 1053.7671448896615 307.6063588029317, 1052.6580866064485 280.35651568285857, 1053.736288519035 273.5088804210533 L 1054.5221707207322 268.5177608421065 1067.511085360366 265.22797963439183 C 1096.7890248781641 257.81257827881154, 1110.902317244558 255.07305383491777, 1118.5 255.33054575457624 L 1123.5 255.5 1124.20656525494 264.5 M 1013.1292497081711 277.25 C 1014.7269936982055 278.57131533196866, 1015.8578197721133 282.85127311810174, 1018.4795893939558 297.5 C 1019.3655202828824 302.45, 1020.509783763429 308.525, 1021.0223971285039 311 C 1022.9421586040011 320.2689929205427, 1024.246241281761 340.80912877749074, 1023.6254660741301 352 C 1023.0640607868885 362.12059469503293, 1020.8222138778957 376.51111945543516, 1019.6196215113637 377.71371182196964 C 1017.8954326645453 379.4379006687919, 987.9656839657453 372.9578488464488, 981.8398699036413 369.5340658544409 C 975.6535212923542 366.0764494555059, 974.6411896522346 364.6996211682414, 975.3880006826985 360.7591588011788 C 977.1970443764412 351.21394815915534, 977.1152449053023 341.9298873322012, 975.0986489506101 327.9183709123415 C 970.0574594181935 292.8916667554055, 973.1616732626196 281.1073312271975, 988.4042574944523 277.4071099793459 C 995.307197650361 275.7313832489533, 1011.1710350397335 275.63057969184615, 1013.1292497081711 277.25 M 1266.772817721057 287.2247601037343 C 1271.0227679744758 288.99837816078815, 1277.425 291.9899929528983, 1281 293.87279297509025 C 1293.8784033779516 300.6552987557347, 1301.371009394506 304.13863372917876, 1306.4373693223667 305.69870214437566 L 1311.5943398847578 307.286672009731 1313.8265126611504 316.8933360048655 C 1318.93741575861 338.8892716637215, 1324.9426731788883 370.2273642429168, 1326.0153333422631 380.5 C 1326.6470693584013 386.55, 1327.3258227094632 392.85, 1327.5236741224007 394.5 C 1329.31985830566 409.479442695785, 1334.296572801739 493.77623222287076, 1333.4466640861547 494.82503145177105 C 1332.4852971796874 496.0113716453752, 1315.898030240625 495.1744796659026, 1312 493.74296403065307 C 1294.691626418813 487.3866235528441, 1278.7306626073946 473.94411594488116, 1271.3416105366236 459.5 C 1259.3746724665982 436.10703438910474, 1258.1277523265971 422.41313999880185, 1260.1871709888578 337 C 1260.8079819056327 311.2522437428612, 1260.5609952366092 304.38052928419404, 1258.4529448576552 288.75 C 1258.1006035187995 286.1375, 1258.0898192616798 284, 1258.428979841834 284 C 1258.7681404219882 284, 1262.5228674676384 285.45114204668045, 1266.772817721057 287.2247601037343 M 790.9881311246135 296.25 C 790.9526248459716 302.9809769748524, 787.2474373390855 311.8919639489873, 780.3562470519438 321.819712816422 C 777.9435461176465 325.2955548654541, 775.0955450829279 329.85255423288424, 774.0273558636802 331.94637807737786 C 771.8520374066298 336.2103545083954, 770.9735817934121 336.7096042111577, 764.2366935391051 337.5106720289928 C 761.6315120925973 337.8204481359491, 758.5097060476019 338.2852735681645, 757.2993467724486 338.543617433916 C 751.6175970750398 339.7563525376106, 710.5904153836043 341.9986044065058, 684.5 342.52230825851495 C 668.55 342.8424670722682, 644.9598796649093 343.52830143918294, 632.077510366465 344.0463846294365 C 619.1951410680208 344.5644678196901, 608.4557179910977 344.7890513244302, 608.2121257510804 344.5454590844146 C 607.9685335110631 344.3018668443989, 607.7692307692307 341.8539748569001, 607.7692307692307 339.105699112195 C 607.7692307692307 331.3461425477146, 613.1122627196647 326.07482514260516, 629.2723457457328 317.89120043593374 C 651.7498414689575 306.50837591405764, 670.5353421660348 303.1484291718335, 723.7282545382972 300.9969569367026 C 750.825971978651 299.9009465077127, 772.7808765094632 297.8603922254893, 782 295.581007185355 C 790.0728157606995 293.5850413545916, 791.0018241770784 293.65418809340593, 790.9881311246135 296.25 M 367.4446456841392 299.7014200542003 C 368.14478242894086 302.0392223586991, 368.3160171269927 301.8974171498287, 355 310.00724942543815 C 337.6163453038391 320.5943884008905, 282.3380234848578 346.46608202374773, 249 359.61800882951957 C 242.675 362.11323585113024, 230.3 367.03125574005816, 221.5 370.54694191602607 C 212.7 374.06262809199393, 197.175 379.9082619942916, 187 383.53723947668755 C 176.825 387.16621695908344, 164.225 391.70517278707973, 159 393.62380798334596 C 153.775 395.5424431796122, 144.55 398.93093681918265, 138.5 401.15379384905805 C 132.45 403.37665087893345, 124.8 406.2776911488423, 121.5 407.60055000441093 C 118.2 408.92340885997965, 115.20289609727145 410.00445464081076, 114.83976910504765 410.0028739618134 C 114.47664211282385 410.001293282816, 113.87888028236343 406.0625, 113.51140948180223 401.25 C 113.14393868124104 396.4375, 112.64743782632598 391.78880949893085, 112.40807424865764 390.91957666429084 C 112.09722395947766 389.7907446145502, 113.61975322109772 388.5959511226688, 117.73643387190306 386.73818615788895 C 120.90639524235638 385.307654214008, 124.625 383.4668371627591, 126 382.6474815995581 C 134.33215479694195 377.68239259132065, 149.76481529654646 369.78213669546886, 157.5 366.52206623610164 C 162.45 364.4358395469493, 169.65 361.4056108994015, 173.5 359.7882247971065 C 177.35 358.17083869481155, 181.85 356.24133544159645, 183.5 355.5004397899618 C 185.15 354.7595441383271, 188.3 353.50860780518605, 190.5 352.7205812718705 C 192.7 351.9325547385549, 200.8 349.02123511022796, 208.5 346.2509820978105 C 216.2 343.480729085393, 229.25 339.11337247794825, 237.5 336.5457451923776 C 245.75 333.978117906807, 253.625 331.48088754899777, 255 330.99634439724605 C 256.375 330.5118012454944, 262.225 328.6884852319478, 268 326.9445310338093 C 292.1164313281659 319.66176884179634, 304.8166842384478 315.7474159794469, 310 313.99968486577916 C 313.025 312.9797032821641, 317.525 311.63634157263186, 320 311.01443662237426 C 335.0942686905865 307.2216283721947, 362.4851110308831 297.64212484683844, 363.65689023470236 295.7461462677486 C 364.3999796280159 294.5438023726878, 366.5825820017067 296.82293313235454, 367.4446456841392 299.7014200542003 M 1379.136141582334 334.34067286754305 C 1389.983031754155 337.911439042182, 1406.9169300205801 345.7098600155039, 1410.1218029596837 348.61023016354227 C 1413.9804189312645 352.10222962478986, 1420.7294877481424 393.07282586189734, 1425.011671133374 439 C 1425.5501237926937 444.775, 1426.4366147684912 453.325, 1426.9816510795904 458 C 1428.7082222876227 472.8095094458466, 1429.9828323592433 485.96786665020056, 1431.485964757193 504.5 C 1432.2889489824204 514.4, 1433.2442662505844 524.6375, 1433.6088920197797 527.25 L 1434.271847963771 532 1427.7412590960482 532 C 1416.8933559120119 532, 1402.0496571325452 526.4112865580547, 1387.8540375561302 516.9822975732737 C 1384.6990743295714 514.8867135552268, 1381.1912491049409 512.8780877784703, 1380.0588703902845 512.5186847360371 C 1378.926491675628 512.1592816936039, 1378 511.5478808821627, 1378 511.16001626616776 C 1378 510.7721516501729, 1376.4836989829528 509.63822586512777, 1374.6304421843397 508.64018118828983 C 1371.3058659795795 506.8497786998782, 1371.2517331462448 506.7099115324607, 1370.5753692779426 498.162777251565 C 1370.1983359780377 493.39824976320426, 1368.5772807175942 477.35, 1366.9730242547355 462.5 C 1365.3687677918767 447.65, 1363.5779248957065 429.425, 1362.9933733743574 422 C 1362.4088218530082 414.575, 1361.7288416979923 407.375, 1361.4823063632107 406 C 1360.8647667984044 402.5558003993176, 1358.2394733353606 374.47047115031444, 1357.5095926666704 363.5 C 1356.8849743228254 354.11167418859804, 1355.2512441478111 337.5892120471394, 1354.4547514595502 332.6053645426065 L 1353.9921458170427 329.710729085213 1361.2460729085215 330.2750068147678 C 1365.444116845775 330.60156960918397, 1372.9807185787115 332.3143246789138, 1379.136141582334 334.34067286754305 M 367.91263782532917 336.75 C 369.6037321294271 337.7125, 370.99019992494993 338.79374309600064, 370.9936773709354 339.15276243555695 C 371.0028304279687 340.0977446163572, 361.1974006399939 346.4612190505987, 351.69994181639265 351.67390588333495 C 338.6047202666601 358.8612272723391, 310.33347297341203 376.06305762322944, 294.5 386.4775947690878 C 265.6742358020909 405.43786915115135, 249.52230955874916 415.80304029746463, 235.5 424.3396483978047 C 226.7 429.6969792261004, 215 436.95483502819394, 209.5 440.46821684690144 C 204 443.98159866560894, 195 449.4309840768041, 189.5 452.57796220511295 C 184 455.7249403334218, 175.9 460.42185594702863, 171.5 463.01555245757265 C 154.80943310665089 472.85424907354576, 111.0964219822437 496, 109.20564943276037 496 C 108.66496223392495 496, 107.93992197849431 494.3125, 107.5944488651367 492.25 C 107.24897575177908 490.1875, 106.4592710682379 485.77771837000745, 105.8395495683785 482.4504852666832 C 104.2406194839688 473.8659628514435, 105.39166577830717 467.6018623555699, 109.32589388906928 463.4774767131233 C 111.40356894766855 461.2993790176909, 121.82660641400827 455.41777485729705, 139.5 446.4505641061844 C 154.35 438.91590026213527, 178.65 426.5499704044548, 193.5 418.9707199780057 C 260.4718094234509 384.7891634034091, 323.1001533885719 353.77455241973547, 349 341.9645003876052 C 355.325 339.0803682835076, 360.9275 336.33348347189286, 361.45 335.86031191735026 C 362.8638888685906 334.5799061873951, 364.49414620178055 334.8043378452093, 367.91263782532917 336.75 M 1468.3921870992904 369.0707734485853 C 1480.174465957125 372.50339478562086, 1502.8729390750386 380.6672077016455, 1513.4480507676733 385.2757243211752 L 1523.3961015353466 389.61097473055645 1524.6766064917529 397.5554873652782 C 1527.49691928615 415.0532803389517, 1532.0730760035656 442.1051917983143, 1533.9711327198243 452.5 C 1536.223223414178 464.83369404616667, 1540.0964317601959 489.4533810938692, 1543.0957850207965 510.5 C 1547.856941122569 543.9092817084669, 1549.6625195641736 560.4609763625801, 1550.1864546565566 575.5 L 1550.5 584.5 1545.0018005045986 584.8108672536512 C 1524.2174850672234 585.9860088730927, 1500.420065584856 577.6090678897714, 1487.7462846520732 564.6563258076092 C 1480.289063234774 557.0349643385935, 1471.5387024206739 541.0241078625737, 1468.5324133532213 529.5 C 1464.9379071021817 515.7210596452139, 1462.8378232186835 488.25144794488074, 1461.460680365411 437 C 1460.663611651358 407.33646465238104, 1458.2576647225376 386.4320797979294, 1454.1050609158863 373.0897374859604 L 1452.20972151637 367 1456.7470478574755 367 C 1459.2425773450834 367, 1464.4828900039001 367.9318480518634, 1468.3921870992904 369.0707734485853 M 360.44231379571954 378.76889782236344 C 352.7864108831517 386.0120531087808, 330.5409620110954 406.07411669282925, 323.5946195713593 412 C 312.68405401752966 421.30773840307353, 303.27758172780636 429.4699953693471, 296.5 435.5107530786513 C 292.65 438.94220077118234, 284.55 445.72370063548124, 278.5 450.5807527770934 C 272.45 455.4378049187055, 264.575 461.80743904205946, 261 464.73549527343545 C 246.81599440423238 476.3527165239415, 200.92429733973916 512.0641494788518, 191.5 518.8181452760775 C 186 522.7597629421612, 179.25 527.7733926671046, 176.5 529.9595446648408 C 170.4902189455089 534.7371064314707, 166.05138586341732 537.9370180827785, 144.2324766102991 553.2208888388591 C 135.0296144746346 559.6673777002314, 124.8 566.9122852763496, 121.5 569.320683452455 C 118.2 571.7290816285604, 114.1021272320455 574.4203176763423, 112.39361607121224 575.3012080030815 L 109.28723214242447 576.902826778971 107.39361607121224 570.7014133894854 C 105.19248303251598 563.4929110400776, 104.79224077445438 545.8748401160902, 106.75004612665455 542.3724183886156 C 107.9439042760094 540.2366622895099, 116.23418875346869 534.5150152058197, 136.99278631023373 521.5 C 143.13343227412076 517.65, 152.73463779409016 511.51957436082904, 158.32879857683236 507.87683191295343 C 168.10882129296158 501.5083871590706, 216.56427140960287 470.17359930642095, 230 461.5290653287319 C 244.45712693599378 452.227364704377, 272.77045937917023 433.64651190358126, 294.49333182591386 419.2047960928446 C 307.1469993216612 410.79243394390915, 318.175 403.6178157799879, 319 403.2612001730196 C 319.825 402.90458456605126, 322.73080349831946 401.0124263242712, 325.4573411073766 399.05640408017496 C 331.48664657827095 394.73097112874797, 365.3001724933311 373.027139352685, 366 373.03335488470816 C 366.275 373.03579730271844, 363.77404120807375 375.6167916246633, 360.44231379571954 378.76889782236344 M 747 382.8058284175289 C 747 387.9598204357596, 742.9171824720729 397.7864009596927, 735.8263018003202 409.69883658118965 C 731.9627465764164 416.1894764615353, 727.4898055206855 424.0875, 725.8864327875848 427.25 L 722.9712096364925 433 711.2356048182462 433.0138397428236 C 700.1623371963005 433.02689839454877, 673.7174289052604 434.1151327257129, 648 435.6160479016796 C 630.6054581778919 436.6312244924644, 606.965822956993 436.4000011638019, 593 435.07808346366687 C 579.3086202611589 433.78214284693576, 563.6893696723232 430.5427239048949, 562.1615863034489 428.6822233740346 C 561.1520808736276 427.4528701644413, 560.712669631026 423.82866753119606, 560.8940374093154 418.227656912132 C 561.1465169543815 410.43056844169183, 579.5702527224587 396.1713816756603, 597.8887195603279 389.59534863428087 C 618.398100017 382.2328130719439, 633.9420947839694 380.851795944299, 689.8101567111378 381.4285240176928 C 725.2428049869867 381.79429655875583, 739.7928110873128 381.465338453307, 746.25 380.15248716986525 C 746.6625 380.06861922643935, 747 381.262622787888, 747 382.8058284175289 M 1613.5 420 C 1613.8399186938125 420.55, 1614.316476341281 421, 1614.5590169943748 421 C 1614.8015576474688 421, 1615 420.55, 1615 420 C 1615 419.45, 1614.5234423525312 419, 1613.9409830056252 419 C 1613.358523658719 419, 1613.1600813061875 419.45, 1613.5 420 M 624 470.5819732847813 C 634.0933755099809 471.55960256926267, 648.220362080676 472.0088606911902, 664.5 471.86993047558155 C 690.0764375326999 471.6516614945067, 696.3634000037806 472.32309135557557, 699.0495690136825 475.5597270076195 C 701.1408236060956 478.0795346393633, 697.7932543373748 486.59302480872816, 691.0269981150707 495.9626142955837 C 687.7466780072969 500.5050454104452, 684.0791479848353 506.3980283636686, 682.8769313984894 509.0581319694135 C 680.7352042986681 513.7970584203231, 680.5781373347954 513.9108855914988, 675.0955415298395 514.6973419899294 C 672.0179936884277 515.1388038954683, 650.15 515.3213256462234, 626.5 515.1029458804965 C 553.5155329600575 514.42902068752, 525.8239736163249 514.4695763532021, 517.3775522263226 515.2627611316128 L 509.2551044526451 516.0255222632256 508.61727561952245 512.8363780976123 C 507.512148728934 507.31074364467014, 519.0747330612666 491.38512025740795, 530.0536319777711 483.3112020345078 C 541.5550329024833 474.8530341233964, 553.4271735101024 470.2918791663735, 567.5 468.9246905559055 C 577.9266506990285 467.9117314256786, 604.4697915713792 468.6903064511276, 624 470.5819732847813 M 2147.4779636290987 496.1990138372289 C 2141.1140469558823 504.4718528828742, 2136.081188101924 511.41452143525754, 2136.2938328425253 511.62716617585846 C 2136.750413047276 512.0837463806096, 2171.908698260728 526.2282856086598, 2194 534.8429498838484 C 2202.525 538.1673358260055, 2215.575 543.4284778212126, 2223 546.5343765398642 C 2230.425 549.6402752585158, 2241.225 553.9714172116504, 2247 556.1591364357189 C 2267.8239596397807 564.0477904314199, 2302.757323379375 577.9254309009254, 2309.73910158443 581.0828941837212 C 2312.0706074558666 582.1373023826745, 2314.6315498083977 583, 2315.4300845900552 583 C 2316.2286193717123 583, 2317.1219312042253 583.3882718383508, 2317.4152219956395 583.8628263074461 C 2317.708512787053 584.3373807765414, 2319.9966628890156 585.2991089381907, 2322.5 586 C 2325.0033371109844 586.7008910618093, 2327.2414323324574 587.5816287255242, 2327.4735449366067 587.9571948082552 C 2327.961684366327 588.7470209967914, 2310.489525743094 596.1015548246228, 2294.5 601.8367077459026 C 2263.304113413672 613.0261065412212, 2248.0493596197753 616.4368691387027, 2221.5 618.1585489883198 L 2203.5 619.3258177185992 2178.5 606.7630458881217 C 2164.75 599.8535213813592, 2147.2 590.9476328869018, 2139.5 586.9721825671054 C 2131.8 582.9967322473088, 2118.6639459438784 576.2402882913046, 2110.308768764174 571.9578626648738 L 2095.1175375283483 564.1716342531812 2081.981465007272 581.6751800363563 C 2074.75662512068 591.3021302171028, 2068.9926791768016 599.3106848885685, 2069.1726962430976 599.4719681951692 C 2071.8225636325483 601.8460729587722, 2110.472922365903 624.7729090057906, 2134.7427759811612 638.3671949669499 C 2143.386400944637 643.2087531962354, 2147 646.129997300248, 2147 648.2759709124864 C 2147 648.5000705138522, 2145.1862691940137 649.226831700101, 2142.969487097808 649.890995770817 C 2140.752705001602 650.555159841533, 2136.259336611451 652.6690593581204, 2132.9842240085827 654.5885502521221 C 2126.559339080972 658.3540721162431, 2121.1199007569844 660.5266913343494, 2102.5 666.7645520716532 C 2085.4314354393896 672.4826990212188, 2078.5044446096304 673.9004123525975, 2061.3928312089038 675.1777552420695 C 2047.2821856780952 676.2310827286449, 2028.0334293774492 675.479524436333, 2016.5 673.4249365646737 C 2013.6252531801204 672.9128234925839, 2013.0824893995991 673.4646122952331, 2003.5 686.6410992709449 C 1998 694.2039230158318, 1982.3439733588073 715.4910581209593, 1968.7088296862385 733.9458439490061 C 1922.0980415570073 797.0322428060974, 1917.113074596093 803.9518499548996, 1917.9175083639311 804.4490173651218 C 1921.976897809659 806.9578580161535, 1956.1387653358333 809.2025239532862, 1957.4703903358702 807.0479094429575 C 1958.0823234694942 806.0577808339117, 1954.885950740654 799.1379376753338, 1948.6718934784067 788 C 1944.3960221542566 780.3360235822945, 1944.135372958866 778.770525514832, 1947.25 779.4598950161878 C 1963.7475083596119 783.1113367333766, 1977.9373273906383 786.6508547273779, 1989 789.8740430702569 C 2054.5398902270217 808.969556210051, 2088.8537266365483 815.682519939925, 2126.224742650873 816.7199109954431 C 2150.800579720515 817.4021175896697, 2150.4477229926842 817.5822679339168, 2144.927136102888 807.1714389021395 C 2139.804056900257 797.510237519107, 2127.7252509324526 785.1544357533313, 2111.0329711541162 772.5 C 2098.5137916175154 763.0091961533061, 2094.6493032863905 759.4484457736594, 2089.541569268874 752.6977620670568 C 2086.5631107861464 748.761254981687, 2084.240941183297 745.4257254833685, 2084.381192373652 745.2854742930156 C 2086.088303879053 743.5783627876405, 2112.0121643286584 742.4858687541011, 2175 741.466579076746 C 2226.2687474568083 740.636931502787, 2251.8667562227856 738.6302939646165, 2277 733.4707607002235 C 2296.2300916076692 729.5230690211636, 2320.7946726827013 722.6155154784062, 2327.259784044032 719.3377230444562 C 2329.915078396603 717.9914966219965, 2329.963665498855 717.8304169688356, 2328.5430676643264 715.083283679237 C 2325.9223647599 710.015403089877, 2314.9292833213644 701.0565955290708, 2295.975829256601 688.5426250556288 C 2285.787535347732 681.8158295747264, 2276.4114944835833 675.7554089228089, 2275.1401828918265 675.0750236069232 C 2273.8688713000697 674.3946382910375, 2273.0023280195155 673.6643386471548, 2273.214531157262 673.4521355094059 C 2273.4267342950084 673.2399323716572, 2283.027775159157 671.7089381415856, 2294.550177522037 670.0499261092468 C 2345.151564965021 662.7642657081317, 2360.130266966908 659.9534855191266, 2393.5 651.4818151546665 C 2413.5202215410063 646.399223773109, 2460.034728138473 631.3747229945939, 2479.7284701269837 623.6294350839812 C 2484.804128696825 621.6332457877916, 2489.641628696825 620, 2490.4784701269837 620 C 2491.426808652364 620, 2492 619.0763201368048, 2492 617.5481023732293 C 2492 615.4476632495462, 2490.74576251943 614.5030511379522, 2483.25 610.9581574030842 C 2469.654494064011 604.5285748636271, 2447.1134152807717 594.8397420102975, 2429 587.639877592805 C 2412.593657483876 581.1185540394035, 2395.0626522412595 573.9423889408458, 2375 565.5354454761509 C 2369.225 563.115521234591, 2359.325 559.1213971349806, 2353 556.6596141436835 C 2346.675 554.1978311523864, 2329.35 547.395432219927, 2314.5 541.5431720715517 C 2299.65 535.6909119231764, 2284.125 529.5944852480347, 2280 527.9955572379037 C 2275.875 526.3966292277726, 2258.325 519.5168039935227, 2241 512.7070567173483 C 2190.9596316908883 493.03823929791196, 2176.0638060582814 487.25988641677446, 2167.2743606083823 484.10758386505336 L 2159.0487212167645 481.1574882996919 2147.4779636290987 496.1990138372289 M 566.5 553.0284507300629 C 573.1 554.0162495249948, 587.725 556.416031675473, 599 558.361299953348 C 610.275 560.306568231223, 621.075 562.1534784630737, 623 562.4655449130164 C 624.925 562.7776113629591, 633.25 563.5537249636031, 641.5 564.1902418033364 C 649.75 564.8267586430698, 656.6622039993816 565.4690514893193, 656.8604533319591 565.6175592394466 C 657.4005439258436 566.0221388560325, 639.7639014051273 596.4204291880875, 635.7307683607102 602.0364126366519 L 633.9615367214203 604.5 579.7307683607102 604.5 C 506.2867517762875 604.5, 460.35688821813613 603.0241296745933, 458.76531277451704 600.6130011615878 C 458.36123480050145 600.0008505227146, 458.0237348005015 596.8500935976194, 458.01531277451704 593.6113191058209 C 458.0005047783561 587.9167557870039, 458.18954602539844 587.490565122928, 463.75 580.6825525263844 C 474.0197845078216 568.1086111517415, 488.5711209100566 559.3863390370469, 507.5 554.4581979743668 C 525.8636452793153 549.677215755004, 541.5661950094336 549.2966958023738, 566.5 553.0284507300629 M 529.6618764322736 649.1177048281513 C 544.3355575400504 649.8186496915939, 565.04084723788 650.067630004182, 579.3352401285404 649.7150251168742 C 608.1587683999077 649.0040248655395, 606.526288027848 648.3903950674793, 606.4491208694117 659.906807786002 C 606.3945377550772 668.0527818619967, 603.3918078473109 675.7776255857129, 596.2717883071688 686.0890839088988 C 587.654216943817 698.5693485288617, 588.2383289212142 698.3295445755219, 552.5 704.059350376608 C 539.6720576889272 706.1160111240094, 515.5019505927154 707.9440528520589, 493.5 708.5216583641395 C 452.45320898254283 709.5992379471403, 420.2443155759774 711.8662009046972, 399.68565019458345 715.1246065999461 C 395.9377578016043 715.71862151735, 392.64779899211516 715.9811323254477, 392.37463061794097 715.7079639512742 C 391.6701866058041 715.0035199391393, 390.04407806182303 703.2361957678273, 390.0201068482413 698.6694676161626 C 390.0055664224935 695.8993879381684, 391.0270462360894 693.2916246316004, 393.7098626325918 689.2497907742343 C 406.84090483433494 669.4670389531632, 428.8333579477526 655.3831300177379, 454.5 650.3199472302132 C 469.4246544551789 647.3758046581778, 487.2334277332271 647.0909466506363, 529.6618764322736 649.1177048281513 M 561.9274198509671 743.6348586918014 C 565.4756001398232 748.145638976237, 564.5741586206576 752.7948672766594, 557.2946604026346 767.5285399548683 C 555.1129872404721 771.9442369300458, 553.0069691684017 776.8360966114179, 552.6146202424782 778.3993392468064 C 551.6550245839094 782.2226728845308, 549.990507905064 783.7069089286906, 544.8401808884412 785.3317438655455 C 527.8483773052876 790.6923502916961, 518.8562513577403 793.394398660874, 507.5 796.5521132712855 C 500.35 798.5402393485631, 492.25 800.8439318082817, 489.5 801.6714298484379 C 482.32741071152844 803.8297220590038, 467.65426610955683 807.5893965494533, 451.5 811.408104195523 C 438.64242526747125 814.4475068281176, 419.85602255865814 819.1498685751698, 401 824.0485906104516 C 396.875 825.120249722689, 390.125 826.7184224281364, 386 827.6000855114459 C 381.875 828.4817485947553, 374.225 830.4548363583224, 369 831.9847249860393 C 363.775 833.5146136137561, 352.0812873213054 836.4329994194185, 343.0139718251231 838.4700267764001 C 333.9466563289409 840.5070541333816, 326.26690046822597 842.335046439023, 325.9478476902011 842.5322319000475 C 325.6287949121763 842.7294173610719, 323.5975075908709 842.2600837338973, 321.433875865078 841.4892682841038 C 319.27024413928507 840.7184528343103, 316.0375 840.0680338772896, 314.25 840.0438928240578 C 311.25747415874656 840.0034773132152, 311.0005750883426 839.7425258412535, 311.0072591250421 836.75 C 311.01616646616054 832.7620732916201, 316.0735893336542 817.7781758295037, 320.1087075314098 809.7846515901801 C 331.84153150430535 786.5420578849396, 351.5625258709011 771.2963556931322, 381.76878175157873 762.1171196589436 C 403.28768460563583 755.5778421902481, 418.68896914329906 753.5228026423431, 465.5 750.9446122960687 C 518.8167552259246 748.008109059493, 532.5723176527392 746.7026182012581, 548.5 743.0673814078382 C 559.2813830772217 740.6067044812287, 559.5545546472908 740.618249414087, 561.9274198509671 743.6348586918014 M 545.2270219043637 830.5989136893389 C 546.2085993711958 832.7532415598217, 546.0473860516199 834.2500692270693, 544.2846177938875 839.3489136893389 C 543.1150161559904 842.7320111602025, 541.8855553055695 847.5333093336748, 541.55248257073 850.0184651859438 L 540.946895780113 854.5369303718877 534.2234478900565 856.9080449133827 C 530.5255515505254 858.2121579112049, 523.9 860.8365544470803, 519.5 862.7400372153279 C 515.1 864.6435199835754, 509.475 867.0302562612972, 507 868.0438956102648 C 501.21149117985243 870.4145866453957, 480.1171711078641 879.2850383550115, 463.5 886.3362438846559 C 456.35 889.3702211609142, 444.875 894.0920574716527, 438 896.8292134640744 C 431.125 899.5663694564962, 420.55 903.9129065744686, 414.5 906.4881848373464 C 402.3426355731804 911.6631594393747, 370.5116654290521 925.098827072094, 356.5 930.9696479900322 C 351.55 933.0436743569151, 340.3 937.5440656640986, 331.5 940.9705175615513 C 322.7 944.396969459004, 312.125 948.6948944339331, 308 950.5214619502825 C 303.875 952.3480294666319, 295.1 955.9357991032771, 288.5 958.4942833650495 C 281.9 961.0527676268218, 269.525 965.8446576786922, 261 969.1429279247614 C 252.475 972.4411981708306, 243.36458672191733 975.9687369718729, 240.75463715981627 976.9819030381886 C 238.1446875977152 977.9950691045045, 235.78486488126094 978.4609210600814, 235.5105866788068 978.0171296061374 C 234.63851845682095 976.6060935824556, 236.8196265107391 967.4027986294457, 239.9419915761332 959.3185941287027 C 247.85492746248556 938.8309859961585, 263.9677838053703 917.5203822522549, 287.1330189126739 896.9045030181073 C 293.40526105214434 891.3225270150283, 294.4658862621863 890.7912762910623, 306.6330189126739 887.1372553426274 C 333.10457380804866 879.1873448005192, 340.929636741298 877.0127657249246, 357.5 873.0013597396468 C 366.85 870.737882145536, 381.025 867.1161330583961, 389 864.9530284348916 C 396.975 862.789923811387, 410.475 859.4055454920241, 419 857.4321877251964 C 438.9153169919432 852.822211717585, 455.91620116364084 848.7928877847515, 468.5 845.7003546828128 C 481.42395993568334 842.5242252461478, 504.69745140038845 837.1025932384618, 513 835.333941688531 C 516.575 834.5723768250265, 524.225 832.6677201995674, 530 831.101371409733 C 543.3618674011069 827.477242434209, 543.7981341176397 827.4628466067616, 545.2270219043637 830.5989136893389 M 536.4690601318179 891.7750036353773 C 534.2520432043177 893.8237516359198, 530.6520432043177 896.9843735745586, 528.4690601318179 898.7986079434636 C 522.0846740620799 904.1045458492544, 496.223016997736 925.2000597094782, 491.6726614339908 928.813658286334 C 489.3776976452958 930.6361703438176, 486.6 932.891544049049, 485.5 933.8255998535147 C 484.4 934.7596556579805, 480.575 937.7541059556238, 477 940.4799338482776 C 473.425 943.2057617409314, 468.6638651960856 947.1395201154745, 466.4197004357458 949.2216191250401 C 464.175535675406 951.3037181346057, 459.000535675406 955.4921438351874, 454.9197004357458 958.5292317929998 C 446.30867398549753 964.9378327779858, 440.85513688020853 969.139672844241, 432.5 975.8031576406835 C 429.2 978.4350115700128, 418.4 986.3896127249818, 408.5 993.4800490961704 C 398.6 1000.5704854673592, 384.41525895830296 1010.9006074816616, 376.9783532406733 1016.4358757946204 C 369.5414475230436 1021.9711441075791, 360.5414475230436 1028.5143989485628, 356.9783532406733 1030.9764421079171 C 353.41525895830296 1033.4384852672715, 346.1557133935184 1038.703931514735, 340.8460297633742 1042.677433768947 C 335.53634613323004 1046.650936023159, 328.78634613323004 1051.4890447816692, 325.8460297633742 1053.4287865656368 C 322.9057133935184 1055.3685283496043, 316.11995567887027 1060.0030821021408, 310.76656817526725 1063.727794904607 C 305.41318067166424 1067.4525077070732, 293.9381806716642 1075.3657970410795, 285.26656817526725 1081.3128823135103 C 276.5949556788703 1087.259967585941, 261.625 1097.5365600625357, 252 1104.1497544837212 C 242.375 1110.7629489049064, 231.575 1118.1676334106564, 228 1120.6046089409433 C 224.425 1123.0415844712302, 216.775 1128.3752898547375, 211 1132.4572875709596 C 198.3096764483376 1141.42730865425, 186.0121535688673 1149.3558325524784, 185.55629916144264 1148.8614847523813 C 184.1230847412506 1147.3072464163026, 184.05289689889338 1124.31080823492, 185.45447597412408 1115.5 C 188.23122750805106 1098.044384606039, 196.82315280165645 1075.3635138670634, 206.4445808880917 1060.0905498380484 C 214.99398589230367 1046.519305119929, 222.0850799297282 1036.1790670904559, 224.13461988689164 1034.2949232347537 C 227.36290266529218 1031.327160083744, 241.2212185334416 1024.7400242456429, 300.5 997.996924479408 C 315.35 991.2974778696184, 329.75 984.6849282719958, 332.5 983.3023698180242 C 335.25 981.9198113640526, 342 978.8531575406917, 347.5 976.4875835438886 C 358.44966305717713 971.7780856890137, 363.60043559835657 969.4289366267739, 387.5 958.2445021928186 C 396.3 954.1263090172125, 407.775 948.8443684971246, 413 946.5068565926233 C 418.225 944.1693446881219, 428.4846976110601 939.4990470847583, 435.79932802457796 936.1284174740376 C 443.11395843809584 932.7577878633169, 449.26185315909254 930, 449.4613162934595 930 C 449.66077942782647 930, 455.6010818167664 927.25238818785, 462.66198826888154 923.8941959729999 C 469.7228947209967 920.5360037581498, 477.075 917.2022816051208, 479 916.4859245218242 C 480.925 915.7695674385277, 488.2278317450813 912.4440002815087, 495.2285149890696 909.0957752840043 C 502.22919823305784 905.7475502865, 511.67919823305783 901.451451105053, 516.2285149890696 899.5488882141224 C 520.7778317450814 897.6463253231916, 527.875 894.281343268856, 532 892.0711503155985 C 541.2160521258398 887.1331494755057, 541.5134905659808 887.113439423723, 536.4690601318179 891.7750036353773 M 564.3678968607871 920.089484303936 C 564.7155535873543 921.8277679367712, 565 923.8419815035425, 565 924.5655144523166 C 565 925.2890474010909, 560.6418322583099 930.0702974010909, 555.3151827962442 935.1905144523166 C 542.0269558540514 947.9637608719505, 515.7689095853191 974.3014526349543, 508.5615232267645 982.0859864890039 C 505.29536100148493 985.6136939200518, 494.27036100148496 997.0592464964571, 484.0615232267645 1007.5205477699049 C 473.852685452044 1017.9818490433526, 459.425 1033.0568490433525, 452 1041.0205477699049 C 444.575 1048.9842464964572, 435.2958508861513 1058.875, 431.3796686358918 1063 C 427.4634863856323 1067.125, 416.6942119302533 1078.6, 407.4479476239385 1088.5 C 385.5816478051949 1111.9123058820326, 336.9912447682613 1161.9934509210434, 310.9248518834594 1187.984401348121 C 284.9269059245394 1213.9071029513073, 249.66308718327647 1247.4552394156512, 239.2862261499845 1256.13760987776 C 236.41865053247597 1258.536924444992, 229.80146237368524 1264.4742711797169, 224.58136357489403 1269.331713732704 C 217.0851394814205 1276.3071521873933, 214.66110928295032 1278.027215605856, 213.04840774346374 1277.5153640209348 C 210.2647916730403 1276.6318786006182, 206.8017450218445 1270.3030156445388, 203.0427682405499 1259.2296383059752 C 195.09498183233495 1235.8166610451362, 194.84173335756478 1215.749131874819, 202.29868279891355 1200.2679552443246 C 205.2117636666881 1194.220184663655, 206.02564305980812 1193.4809643024817, 229.82360756655552 1175.2679552443246 C 243.31130321521852 1164.945579859946, 255.6550250455195 1155.6970147080428, 257.25410052277994 1154.715588240095 C 258.8531760000403 1153.7341617721472, 261.8126706231123 1151.4213409808324, 263.8307552407176 1149.5759864816173 C 265.8488398583229 1147.7306319824024, 276.05 1139.43819454895, 286.5 1131.1483477406116 C 296.95 1122.8585009322733, 312.925 1109.9662741164746, 322 1102.498954816614 C 331.075 1095.0316355167538, 345.25 1083.4609174876114, 353.5 1076.7862480851866 C 361.75 1070.1115786827618, 371.47356303014067 1062.1416262898756, 375.107917844757 1059.0752427676616 C 382.96988958083915 1052.4419276915776, 395.5558710050019 1042.2843756393725, 430.5 1014.3709055523115 C 444.8 1002.9480246929228, 461.0248417443723 989.9790742284483, 466.5552038763829 985.551015631257 C 478.5219931962556 975.9694289170836, 518.2800994247049 946.1244019043161, 553.4811033498963 920.2987673730202 C 561.2190006948979 914.6217671006023, 563.2664814410292 914.5824072051461, 564.3678968607871 920.089484303936 M 568.2067318531796 970.2735431770909 C 560.8185222406489 985.3414354047565, 550 1008.5646319009605, 550 1009.3563774103482 C 550 1009.615760065123, 547.8066074565143 1014.479186233839, 545.1257943478095 1020.1639911186057 C 542.4449812391047 1025.8487960033726, 538.6730842399485 1033.875, 536.7438010163514 1038 C 534.8145177927543 1042.125, 530.0888960335615 1052.025, 526.2424193292564 1060 C 522.3959426249514 1067.975, 518.9439573485861 1075.492202500044, 518.5713409373334 1076.7048944445423 C 518.1987245260808 1077.9175863890405, 512.0130583696683 1090.9675863890404, 504.82541614530567 1105.7048944445423 C 497.637773920943 1120.442202500044, 489.41801212410235 1137.675, 486.55927881899316 1144 C 476.8067336780082 1165.577685440781, 402.62520319321163 1314.9253220507856, 378.2778623014028 1362 C 374.43760222959287 1369.425, 367.36171211533605 1383.1400162479756, 362.55366204749873 1392.4778138843903 C 357.7456119796614 1401.815611520805, 353.0131465727647 1410.590611520805, 352.03707225439484 1411.9778138843903 C 351.06099793602493 1413.3650162479757, 349.91578449121164 1415.625, 349.492153488143 1417 C 349.0685224850744 1418.375, 347.30943454288905 1421.75, 345.58306917217556 1424.5 C 343.85670380146206 1427.25, 341.5800131125916 1431.525, 340.52375653024114 1434 C 337.4388355128072 1441.2285272780587, 333.78744169189275 1445.8536048271812, 329.5 1447.9633606605175 C 322.04460026425596 1451.6319990263949, 316.8598907574952 1448.865500458307, 290.72320664273695 1427.2725306037862 C 280.11959416040634 1418.512295997335, 266.1503433170515 1399.4724525966315, 258.2411072652003 1383 C 249.4412531404528 1364.6726699042893, 247.484021149652 1355.3717052199504, 248.27002564978713 1335.6164101110612 C 248.94810767979277 1318.573618869417, 250.5862414856473 1313.2320815230298, 257.35327548230214 1305.9982445903067 C 260.18397396703597 1302.9722791149754, 265.92939857848984 1296.6722791149755, 270.12088572997743 1291.9982445903067 C 311.18418913560254 1246.207504722067, 333.28128481729277 1221.3197019721474, 346.4760167258449 1206 C 351.9236866265599 1199.675, 359.1076750953555 1191.3869011319564, 362.44043554539064 1187.5820025154587 C 365.7731959954258 1183.777103898961, 372.46984997840735 1176.127103898961, 377.3218888409052 1170.5820025154587 C 386.1244339766975 1160.5221067491468, 394.0406353060316 1151.572348162501, 403.5 1140.9860176003067 C 406.25 1137.9083892406984, 414.125 1128.9314961239336, 421 1121.037366229718 C 427.875 1113.1432363355025, 438.7037263662766 1100.7929121589095, 445.06383636950363 1093.5922013928448 C 451.4239463727306 1086.3914906267803, 457.9489463727306 1078.946070207487, 459.56383636950363 1077.0468226833045 C 461.17872636627663 1075.147575159122, 467.900943713623 1067.722575159122, 474.50209714138447 1060.5468226833045 C 481.1032505691459 1053.371070207487, 490.1032505691459 1043.466959176008, 494.50209714138447 1038.5376870577957 C 510.24014792678247 1020.9018969347516, 565.76088886995 961.8401971754524, 570.8839811911225 957.2843783634277 C 572.8727915360051 955.5157864633129, 574.6535314765637 954.5138808930038, 574.8411810590303 955.0579215405186 C 575.0288306414969 955.6019621880333, 572.0433284988642 962.4489919244909, 568.2067318531796 970.2735431770909"
		stroke="none" fill-rule="evenodd" data-fill-layer-id="trace-color"
	/>
</svg>